<ttFont>
          <CharString index="0">
            rmoveto
            -17 21 -13 26 -9 28 rrcurveto
            99 21 47 50 64 291 callsubr
            -257 hlineto
            -41 -78 -97 -32 -69 14 rrcurveto
            return
          </CharString>
          <CharString index="1">
            -104 callsubr
            -47 66 rlineto
            return
          </CharString>
          <CharString index="2">
            vlineto
            -106 callsubr
            return
          </CharString>
          <CharString index="3">
            -103 callgsubr
            170 hlineto
            17 35 return
          </CharString>
          <CharString index="4">
            -31 0 89.5 -89.5 202 83.5 88 94.5 190 -84.5 84.5 -55.5 55.5 78 callgsubr
            hintmask 10101010
            26 32 rmoveto
            6 -32 rlineto
            523 hlineto
            hintmask 01101010
            8 54 6 89 -2 56 -84 6 rcurveline
            hintmask 10101010
            -33 -109 -187 -13 355 callsubr
            215 -9 rlineto
            101 vlineto
            -215 -17 rlineto
            215 vlineto
            180 -13 rlineto
            hintmask 10110010
            17 -99 rlineto
            84 hlineto
            hintmask 10101010
            13 65 5 86 -2 39 rrcurveto
            -1 hlineto
            -521 hlineto
            hintmask 10100110
            -1 -51 74 -9 rlineto
            -525 vlineto
            hintmask 10101010
            -30 -12 -30 -13 -25 -16 rrcurveto
            return
          </CharString>
          <CharString index="5">
            -90 callsubr
            -99 callsubr
            return
          </CharString>
          <CharString index="6">
            -106 callgsubr
            endchar
          </CharString>
          <CharString index="7">
            hstem
            14 160 326 161 vstem
            14 325 rmoveto
            -229 159 -116 169 164 155 111 229 229 -153 129 -174 -180 -140 -139 -214 vhcurveto
            307 265 rmoveto
            123 56 -134 -139 -108 -34 -92 -50 -40 hvcurveto
            -5 -19 -17 -4 -21 hhcurveto
            -124 -61 122 153 107 31 89 43 37 hvcurveto
            9 25 25 5 23 hhcurveto
            return
          </CharString>
          <CharString index="8">
            516 -95 callgsubr
            return
          </CharString>
          <CharString index="9">
            -164 239.5 75 105.5 76 hstem
            14 139 vstem
            226 420 rmoveto
            55 42 -45 -56 9 hvcurveto
            -173 -9 9 45 22 44 36 21 rlinecurve
            208 -299 rmoveto
            -23 -47 -40 -13 -41 hhcurveto
            -84 -64 55 101 -5 hvcurveto
            255 -3 58 58 rlineto
            135 1 -105 65 -101 hhcurveto
            -136 -111 -115 -150 -153 120 -107 164 16 hvcurveto
            157 81 rlineto
            return
          </CharString>
          <CharString index="10">
            89 -19 91 535 51 -32 32 hstemhm
            85 152 299 108 hintmask 10111000
            9 658 rmoveto
            hintmask 11011000
            -1 -51 77 -11 rlineto
            -301 vlineto
            -211 128 -103 171 151 109 81 229 vhcurveto
            hintmask 10111000
            -3 callsubr
            hintmask 11011000
            -1 -51 85 -12 rlineto
            -311 vlineto
            -92 -18 -65 -33 -31 vhcurveto
            -15 -24 -28 -9 -35 hhcurveto
            -97 -64 63 130 hvcurveto
            hintmask 10111000
            31 callsubr
            return
          </CharString>
          <CharString index="11">
            -524 95 callsubr
            return
          </CharString>
          <CharString index="12">
            vstem
            272 646 rmoveto
            12 -31 -221 -543 -30 -12 -29 -13 -24 -15 283 callsubr
            272 hlineto
            1 51 -92 13 44 118 335 callgsubr
            42 -108 -31 -13 -30 -13 -26 226 callsubr
            315 hlineto
            1 51 -71 10 -252 621 rlineto
            return
          </CharString>
          <CharString index="13">
            80 -85 95 -106 -70 -68 -41 -48 -48 vhcurveto
            73 -97 58 56 73 37 52 -5 rlinecurve
            10 -8 7 -15 -16 vvcurveto
            -35 -27 -43 -55 -32 vhcurveto
            -42 -3 -46 -17 -33 -28 75 -117 rcurveline
            return
          </CharString>
          <CharString index="14">
            17 273 rmoveto
            -92 callgsubr
            return
          </CharString>
          <CharString index="15">
            538 -91 callsubr
            return
          </CharString>
          <CharString index="16">
            rmoveto
            -90 callgsubr
            return
          </CharString>
          <CharString index="17">
            39 17 rlineto
            return
          </CharString>
          <CharString index="18">
            hlineto
            -88 callsubr
            return
          </CharString>
          <CharString index="19">
            -104 callsubr
            -48 66 rlineto
            return
          </CharString>
          <CharString index="20">
            -89 callgsubr
            hstemhm
            return
          </CharString>
          <CharString index="21">
            151 vstem
            54 481 rmoveto
            265 callgsubr
            84 -39 63 -28 -63 vvcurveto
            -30 -16 -35 -39 -19 vhcurveto
            -45 -51 7 22 -48 hvcurveto
            -49 140 rlineto
            -72 hlineto
            272 callsubr
            rrcurveto
            -41 61 105 -23 72 hhcurveto
            132 116 73 128 119 -94 50 -92 43 hvcurveto
            -85 40 -70 27 58 vvcurveto
            28 15 34 31 19 vhcurveto
            48 1 48 -7 43 -22 29 -112 rcurveline
            80 hlineto
            13 60 4 76 47 vvcurveto
            18 -49 -79 18 -70 hhcurveto
            -144 -113 -76 -121 hvcurveto
            return
          </CharString>
          <CharString index="22">
            hlineto
            48 -31 22 -28 -31 vvcurveto
            -43 -42 -21 -113 -14 vhcurveto
            return
          </CharString>
          <CharString index="23">
            rlineto
            10 -20 -23 5 -23 hhcurveto
            -78 -86 -58 -109 -106 81 -111 191 -116 hvcurveto
            53 70 rlineto
            1 callgsubr
            return
          </CharString>
          <CharString index="24">
            -67 callsubr
            190 return
          </CharString>
          <CharString index="25">
            -266 143 callgsubr
            523 36 callsubr
            hintmask 10000110
            354 hmoveto
            1 51 rlineto
            hintmask 01000110
            -92 13 rlineto
            521 0 callsubr
            hintmask 10001010
            -1 -51 rlineto
            hintmask 00110010
            77 246 callgsubr
            hintmask 10000110
            -54 callgsubr
            return
          </CharString>
          <CharString index="26">
            -117 -55 -58 -64 -81 91 -93 131 -34 hvcurveto
            163 44 12 -70 -91 -74 -112 7 rlinecurve
            -63 96 -63 1 -33 -127 41 -31 42 -21 44 -12 rlinecurve
            126 -197 106 78 -124 109 rlineto
            return
          </CharString>
          <CharString index="27">
            -203 85 183 -115 169 hhcurveto
            42 41 7 14 36 hvcurveto
            -24 111 rlineto
            -13 -52 -51 -9 -51 hhcurveto
            -89 -78 28 92 -43 hvcurveto
            47 41 rlineto
            50 41 29 33 63 vvcurveto
            return
          </CharString>
          <CharString index="28">
            vlineto
            30 12 29 14 25 15 -6 32 rcurveline
            return
          </CharString>
          <CharString index="29">
            60 callsubr
            -73 -52 -51 -59 -41 26 -47 80 -52 hvcurveto
            47 38 rlineto
            -66 callsubr
            return
          </CharString>
          <CharString index="30">
            -17 -34 48 -67 rlineto
            return
          </CharString>
          <CharString index="31">
            47 callsubr
            -168 hlineto
            14 callgsubr
            -133 hlineto
            -30 -80 327 -325 89 78 rlineto
            return
          </CharString>
          <CharString index="32" raw="1">
            9915241d 0b  
          </CharString>
          <CharString index="33">
            -59 callsubr
            hintmask 0110100111110000
            232 15 -43 callsubr
            return
          </CharString>
          <CharString index="34">
            -139 4 -21 23 -21 311 179 -62 62 22 -20 hstemhm
            39 87 hintmask 01001100
            442 497 rmoveto
            hintmask 01100100
            -33 -22 rlineto
            -367 hlineto
            -7 -52 3 -76 10 -51 rrcurveto
            78 hlineto
            hintmask 10010100
            31 101 144 16 -282 -384 55 -46 rlineto
            hintmask 01001100
            48 38 332 -36 16 52 12 62 3 64 rlinecurve
            -55 10 -33 -71 -176 -14 269 363 rlineto
            return
          </CharString>
          <CharString index="35">
            -16 -1 92 351 216 -83 83 -67 67 hstemhm
            61 95 hintmask 10101000
            570 hmoveto
            13 75 9 63 4 72 -90 13 rcurveline
            -46 -129 -240 -6 rlineto
            hintmask 10011000
            369 503 rlineto
            hintmask 10101000
            -33 67 rlineto
            -492 hlineto
            hintmask 11001000
            -5 -55 1 -93 12 -68 rrcurveto
            84 hlineto
            hintmask 10101000
            31 126 223 14 -377 -514 40 -68 -1 -1 rlineto
            1 hlineto
            return
          </CharString>
          <CharString index="36">
            -82 -50 -49 -50 -68 -65 callgsubr
            return
          </CharString>
          <CharString index="37">
            -524 -89 callsubr
            return
          </CharString>
          <CharString index="38">
            -176 206 callsubr
            83 187 218 -106 106 -29 29 6 -20 hstemhm
            91 145 hintmask 01010001
            340 hmoveto
            hintmask 10010001
            4 49 rlineto
            hintmask 00101001
            -28 15 -44 12 -36 7 rrcurveto
            202 vlineto
            32 39 38 35 31 23 rrcurveto
            hintmask 01010001
            20 -112 rlineto
            76 hlineto
            hintmask 01000101
            23 55 12 76 2 58 rrcurveto
            hintmask 01010001
            -29 27 -55 12 -50 -18 -100 -112 rcurveline
            hintmask 01000011
            82 vlineto
            -49 44 57 callsubr
            -26 -9 -27 -11 -21 -12 3 -34 rcurveline
            return
          </CharString>
          <CharString index="39">
            102 59 rlineto
            42 -15 17 -38 -33 vvcurveto
            -46 -36 -48 -70 -86 -65 72 127 -59 vhcurveto
            return
          </CharString>
          <CharString index="40">
            54 -35 48 -55 41 vhcurveto
            return
          </CharString>
          <CharString index="41">
            -73 callgsubr
            -74 -79 -48 -127 -13 vhcurveto
            return
          </CharString>
          <CharString index="42">
            14 rmoveto
            -99 callgsubr
            return
          </CharString>
          <CharString index="43">
            rmoveto
            37 35 26 24 19 36 120 -81 48 hhcurveto
            36 31 45 91 57 hvcurveto
            -39 34 -86 -71 rlineto
            55 -107 -64 33 -32 hhcurveto
            -38 -36 -50 -81 -53 hvcurveto
            return
          </CharString>
          <CharString index="44">
            236 vlineto
            57 48 52 38 40 hhcurveto
            34 13 -23 -24 -52 -59 -52 -83 -61 hvcurveto
            107 callsubr
            106 -85 94 -100 -43 -38 -17 -26 -33 vhcurveto
            106 -95 callgsubr
            413 hlineto
            -30 callgsubr
            return
          </CharString>
          <CharString index="45">
            71 37 136 146 116 58 -1 callsubr
            322 116 66 135 vstem
            1 399 rmoveto
            -204 55 92 -158 143 112 callsubr
            -305 -89 callsubr
            -749 -93 callgsubr
            47 -67 rlineto
            505 -103 80 callsubr
            return
          </CharString>
          <CharString index="46">
            27 -43 106 9 -7 -91 -126 -41 rlinecurve
            17 -34 121 9 67 53 6 57 rlinecurve
            45 6 -47 47 -84 hhcurveto
            return
          </CharString>
          <CharString index="47">
            203 -38 99 66 23 callsubr
            hintmask 1110011110000000
            488 225 -56 callgsubr
            rlineto
            -199 82 177 -116 167 hhcurveto
            64 64 15 32 52 hvcurveto
            87 -49 -102 callsubr
            -257 -477 rmoveto
            -93 -99 43 86 -54 -47 callgsubr
            -45 -64 -23 -73 hhcurveto
            return
          </CharString>
          <CharString index="48">
            -107 callgsubr
            -60 callgsubr
            rlineto
            -80 callsubr
            return
          </CharString>
          <CharString index="49">
            -65 callsubr
            516 vlineto
            return
          </CharString>
          <CharString index="50">
            rmoveto
            -96 83 -150 -178 75 -60 56 53 55 53 60 49 rlinecurve
            endchar
          </CharString>
          <CharString index="51">
            134 callsubr
            -37 28 -22 369 callsubr
            24 28 11 38 -8 35 -37 34 356 callgsubr
          </CharString>
          <CharString index="52">
            -59 75 -17 -102 -80 hhcurveto
            -78 -43 99 154 -47 hvcurveto
            return
          </CharString>
          <CharString index="53">
            -66 -16 105 346 243 331 callgsubr
            hintmask 10110000
            546 143 rmoveto
            -165 -54 rlineto
            -142 -5 -73 116 145 vvcurveto
            90 28 102 70 53 vhcurveto
            57 50 -11 -19 44 hvcurveto
            hintmask 11010000
            24 -125 rlineto
            92 hlineto
            hintmask 10110000
            17 56 8 84 -3 40 rrcurveto
            28 -40 -66 35 -100 hhcurveto
            -227 -109 -180 -177 -166 94 -179 260 8 hvcurveto
            205 88 rlineto
            return
          </CharString>
          <CharString index="54">
            hintmask 10001010
            145 32 rmoveto
            6 -32 rlineto
            349 300 callsubr
            hintmask 01001010
            -102 15 rlineto
            523 vlineto
            126 -10 rlineto
            hintmask 10010010
            15 -126 rlineto
            80 hlineto
            hintmask 10000110
            13 64 7 108 -4 39 -236 -6 -151 0 -240 6 rrcurveto
            hintmask 10010010
            -4 -39 7 -108 13 -64 rrcurveto
            80 hlineto
            hintmask 00101010
            15 126 127 10 rlineto
            -512 vlineto
            hintmask 10001010
            -34 -14 -41 -14 -27 -17 rrcurveto
            return
          </CharString>
          <CharString index="55">
            rmoveto
            143 -127 107 2 144 138 -58 58 -135 -116 -130 114 rlineto
            endchar
          </CharString>
          <CharString index="56">
            -287 -75 callgsubr
            return
          </CharString>
          <CharString index="57">
            21 -14 21 -25 -27 -13 -21 -21 -21 13 -20 27 25 14 20 21 vhcurveto
            return
          </CharString>
          <CharString index="58">
            -98 callgsubr
            171 hlineto
            39 callsubr
            return
          </CharString>
          <CharString index="59">
            -95 callgsubr
            170 hlineto
            -30 callgsubr
            return
          </CharString>
          <CharString index="60">
            rmoveto
            -137 130 rlineto
            51 -54 -36 17 -42 hhcurveto
            -42 -45 -17 -40 -50 hvcurveto
            82 -83 95 47 178 -159 rlineto
            endchar
          </CharString>
          <CharString index="61">
            rmoveto
            142 -151 110 2 128 165 -66 56 -114 -139 -121 138 rlineto
            endchar
          </CharString>
          <CharString index="62">
            rmoveto
            -76 -15 -40 -36 -54 hhcurveto
            -52 -46 33 80 -42 hvcurveto
            -58 -50 rlineto
            -116 55 91 -58 88 hhcurveto
            96 63 68 102 return
          </CharString>
          <CharString index="63">
            330 27 126 -126 136 146 295 callsubr
            584 115 64 135 hintmask 10111110
            29 callgsubr
            253 -139 248 callgsubr
            -1009 -107 callgsubr
            764 -113 -569 119 callsubr
            hintmask 01111110
            -55 callsubr
            -83 -27 rlineto
            15 callsubr
            133 hlineto
            return
          </CharString>
          <CharString index="64">
            rmoveto
            31 36 -15 -26 14 hvcurveto
            10 -79 -93 -65 -80 34 rrcurveto
            59 -50 49 92 83 hhcurveto
            -287 -445 -106 callgsubr
            return
          </CharString>
          <CharString index="65">
            188 312 125 56 -1 callsubr
            69 216 callgsubr
            192 112 vstem
            27 46 rmoveto
            98 -81 239 183 rlineto
            -134 vlineto
            -99 callgsubr
            241 vlineto
            55 55 62 39 34 hhcurveto
            27 14 -20 -22 -40 -52 -60 -83 -60 hvcurveto
            90 -103 rlineto
            103 71 54 72 81 vvcurveto
            101 -82 105 -100 -42 -42 -19 -30 -38 vhcurveto
            105 -95 callgsubr
            427 hlineto
            220 callgsubr
            12 -10 12 -8 13 -7 rrcurveto
            64 74 rmoveto
            -29 -24 13 22 -14 hvcurveto
            208 -95 callgsubr
            215 -246 hlineto
            -28 -24 -31 -14 -33 hhcurveto
            return
          </CharString>
          <CharString index="66">
            78 76 33 50 36 hvcurveto
            -61 97 rlineto
            -39 -41 -62 -29 -70 hhcurveto
            -59 -52 20 43 -47 hvcurveto
            -35 -42 rlineto
            -91 54 97 -42 86 hhcurveto
            return
          </CharString>
          <CharString index="67">
            163 135 115 66 122 55 278 callsubr
            141 154 135 193 112 vstem
            841 -88 callgsubr
            -842 325 callgsubr
            146 -132 112 12 13 2 3 12 vhcurveto
            -43 callgsubr
            -162 -288 12 callsubr
            return
          </CharString>
          <CharString index="68">
            -29 22 -11 17 20 vvcurveto
            39 42 13 45 vhcurveto
            84 hlineto
            18 33 -58 86 rlineto
            -95 hlineto
            -109 -45 -61 -61 return
          </CharString>
          <CharString index="69">
            131 callgsubr
            272 64 callgsubr
            -732 127 callgsubr
            return
          </CharString>
          <CharString index="70">
            -176 117 118 -71 115 hhcurveto
            122 78 79 92 79 -58 83 -107 33 hvcurveto
            -179 -46 rlineto
            -20 16 -8 18 15 vvcurveto
            29 27 21 53 vhcurveto
            return
          </CharString>
          <CharString index="71">
            rmoveto
            86 43 58 72 70 vvcurveto
            37 -18 50 -67 25 vhcurveto
            -41 -13 -34 -43 -6 -37 55 -48 rcurveline
            -6 -43 -25 -39 -37 -30 rrcurveto
            return
          </CharString>
          <CharString index="72">
            11 316 rmoveto
            -162 102 -189 271 15 vhcurveto
            213 89 rlineto
            170 vlineto
            76 16 -1 48 rlineto
            -309 hlineto
            -6 -34 31 -17 36 -16 33 -12 rlinecurve
            -138 vlineto
            -29 -5 -31 -4 -27 1 rrcurveto
            -137 3 -67 125 130 vvcurveto
            101 31 101 73 52 vhcurveto
            74 4 61 -15 48 -20 rrcurveto
            return
          </CharString>
          <CharString index="73">
            -21 334 callgsubr
            19 115 108 92 callgsubr
            hintmask 10111100
            -26 callsubr
            hintmask 11111100
            207 vlineto
            62 59 47 24 105 callgsubr
            -38 113 callgsubr
            hintmask 10111100
            175 callgsubr
            return
          </CharString>
          <CharString index="74">
            81 0 83 191 76 -76 392 -93 93 -78 78 296 callsubr
            160 hintmask 11010110
            405 317 rmoveto
            -6 33 rlineto
            -136 223 hlineto
            hintmask 10001110
            145 15 rlineto
            74 -44 50 -106 -110 vvcurveto
            -121 -61 -124 -132 -23 -26 4 8 -27 vhcurveto
            hintmask 10100110
            179 99 vlineto
            -321 384 rmoveto
            -1 -51 71 -9 rlineto
            hintmask 11000110
            -248 -54 vlineto
            hintmask 10100110
            -43 -43 6 -33 rlineto
            91 -201 hlineto
            -54 callgsubr
            314 hlineto
            238 108 164 170 162 -115 170 -215 -108 -105 -2 -6 -108 hvcurveto
            endchar
          </CharString>
          <CharString index="75">
            -42 -37 -86 -10 -65 53 rrcurveto
            40 36 20 46 39 vvcurveto
            return
          </CharString>
          <CharString index="76">
            125 100 135 return
          </CharString>
          <CharString index="77">
            -36 -58 81 callgsubr
            hintmask 11011010
            121 callgsubr
            hintmask 11011100
            238 hlineto
            hintmask 10111100
            3 callsubr
            -642 -107 callgsubr
            394 hlineto
            hintmask 11011100
            -60 -134 vlineto
            -124 -53 -59 -66 -89 97 -92 130 -35 hvcurveto
            152 49 rlineto
            hintmask 11011010
            85 callsubr
            return
          </CharString>
          <CharString index="78">
            -207 -106 callgsubr
            return
          </CharString>
          <CharString index="79">
            -21 334 callgsubr
            54 123 65 -20 65 101 hstem
            264 callsubr
            vstem
            -26 callsubr
            233 vlineto
            55 48 51 40 37 187 callgsubr
            65 60 rlineto
            59 -29 -60 123 callsubr
            175 callgsubr
            return
          </CharString>
          <CharString index="80">
            -32 25 -15 37 31 vvcurveto
            54 41 58 292 callgsubr
            return
          </CharString>
          <CharString index="81">
            686 -88 callgsubr
            -687 hlineto
            -17 -34 47 -67 rlineto
            50 -148 hlineto
            -69 callgsubr
            return
          </CharString>
          <CharString index="82">
            -99 callsubr
            171 64 callgsubr
            -303 -87 callgsubr
            57 return
          </CharString>
          <CharString index="83">
            101 -2 -101 114 -108 hhcurveto
            return
          </CharString>
          <CharString index="84">
            -149 rmoveto
            36 vlineto
            -132 119 rlineto
            -1 6 6 0 6 hhcurveto
            hintmask 10101000
            135 92 78 97 66 -42 55 -75 46 hvcurveto
            hintmask 10110000
            37 31 26 42 48 vvcurveto
            98 -106 97 -126 -73 -89 -33 -53 -57 vhcurveto
            79 -116 rlineto
            hintmask 11010000
            61 52 87 46 64 6 rrcurveto
            27 -16 12 -28 -24 vvcurveto
            -38 -28 -34 -47 -21 vhcurveto
            -48 7 -69 -12 -45 -35 71 -118 rcurveline
            hintmask 10101000
            137 53 rlineto
            55 -14 26 -31 -35 vvcurveto
            -55 -62 -44 -83 -15 -16 2 3 -15 vhcurveto
            -49 78 -45 -5 -52 -123 22 -21 51 -31 46 -13 rlinecurve
            163 -204 rlineto
            endchar
          </CharString>
          <CharString index="85">
            rmoveto
            -99 callgsubr
            -63 callsubr
            -826 51 callgsubr
            -93 48 rlineto
            hintmask 10111111
            -121 29 -91 -80 -101 vvcurveto
            -82 59 -65 69 -36 vhcurveto
            -149 -102 98 -80 228 171 rlineto
            -152 89 18 callgsubr
          </CharString>
          <CharString index="86">
            285 callsubr
            419 14 rmoveto
            96 -54 39 17 rlineto
            516 vlineto
            -60 45 rlineto
            170 hlineto
            15 callgsubr
            37 -88 65 -77 63 -37 rlinecurve
            11 -7 11 -5 11 -4 -135 -91 rcurveline
            96 -73 238 175 rlineto
            -207 63 rmoveto
            -18 21 -15 28 -11 30 rrcurveto
            102 147 callsubr
            190 -271 hlineto
            -49 -67 -88 -31 -70 11 rrcurveto
            return
          </CharString>
          <CharString index="87">
            -29 -34 110 213 125 79 -87 callsubr
            41 127 152 131 2 125 hintmask 11111010
            309 76 rmoveto
            -34 -34 8 17 -32 hvcurveto
            -27 25 -14 32 30 vvcurveto
            54 41 47 87 vhcurveto
            116 hlineto
            26 -30 15 -33 -32 vvcurveto
            -62 -53 -56 -91 vhcurveto
            340 462 302 callgsubr
            hintmask 11111100
            321 -124 -53 hlineto
            -150 -76 -79 -100 -144 159 -125 166 hvcurveto
            hintmask 11111010
            126 86 73 105 hvcurveto
            hintmask 11111100
            78 -49 80 -78 56 vhcurveto
            135 -95 callgsubr
            return
          </CharString>
          <CharString index="88">
            -55 -146 vlineto
            -121 -56 -58 -61 -80 97 -91 127 -34 hvcurveto
            165 52 rlineto
            -64 11 -66 -58 -90 hhcurveto
            -94 -87 59 105 -67 hvcurveto
            return
          </CharString>
          <CharString index="89">
            rmoveto
            18 -72 63 -88 64 -41 60 28 rcurveline
            return
          </CharString>
          <CharString index="90">
            hhcurveto
            -24 -14 3 4 -16 hvcurveto
            -20 15 -9 22 21 vvcurveto
            46 51 37 88 -26 vhcurveto
            return
          </CharString>
          <CharString index="91">
            rmoveto
            27 91 rlineto
            1 3 3 0 2 hhcurveto
            30 23 -23 -33 -22 -13 -30 -61 -57 hvcurveto
            -79 -74 17 -45 rlineto
            226 hlineto
            15 88 -144 -28 -3 6 rlineto
            87 59 46 53 51 vvcurveto
            53 -45 48 -75 -42 -43 -14 -25 -35 vhcurveto
            -3 -25 6 -50 6 -24 rrcurveto
            endchar
          </CharString>
          <CharString index="92">
            92 144 -195 -35 callgsubr
            -213 -146 123 hlineto
            return
          </CharString>
          <CharString index="93">
            279 rmoveto
            17 34 -48 81 rlineto
            hintmask 01011000
            -224 hlineto
            -22 23 -11 28 20 vvcurveto
            46 48 28 69 47 50 -14 -25 50 vhcurveto
            2 120 rlineto
            28 -55 -61 13 -57 hhcurveto
            -129 -78 -69 -82 -41 20 -45 40 -41 hvcurveto
            -140 hlineto
            hintmask 00110100
            -17 -34 rlineto
            hintmask 11010100
            45 -70 rlineto
            87 hlineto
            -17 -28 -7 -28 -30 vvcurveto
            -107 98 -72 91 39 31 13 38 89 vhcurveto
            10 -36 -38 -54 -43 -40 118 -62 rcurveline
            124 131 -110 173 -112 hhcurveto
            -45 -56 -27 -33 -83 hvcurveto
            -24 49 29 84 52 36 rrcurveto
            endchar
          </CharString>
          <CharString index="94">
            89 176 -188 -105 callsubr
            return
          </CharString>
          <CharString index="95">
            -104 5 -21 187 56.5 193.5 78 return
          </CharString>
          <CharString index="96">
            rmoveto
            121 112 133 -108 52 49 -129 150 rlineto
            -105 hlineto
            -130 -157 rlineto
            endchar
          </CharString>
          <CharString index="97">
            38 14 16 31 28 vvcurveto
            48 -48 41 -68 -39 -47 -13 -18 -27 vhcurveto
            -2 -24 3 -40 6 -24 45 -1 rcurveline
            34 74 rlineto
            32 24 -22 -29 -23 -16 -32 -51 -2 hvcurveto
            return
          </CharString>
          <CharString index="98">
            -26 14 -33 11 -32 8 rrcurveto
            288 63 vlineto
            50 59 -2 42 rlineto
            -110 hlineto
            -48 178 53 -6 53 -25 44 -43 rlinecurve
            return
          </CharString>
          <CharString index="99">
            hlineto
            -55 callgsubr
            return
          </CharString>
          <CharString index="100">
            -20 21 -20 64 101 hstemhm
            return
          </CharString>
          <CharString index="101">
            107 hintmask 1000011110000000
            26 32 rmoveto
            6 -32 rlineto
            275 300 callsubr
            hintmask 0100011110000000
            -88 13 rlineto
            285 vlineto
            -15 123 rlineto
            hintmask 0001011110000000
            316 -485 rlineto
            hintmask 1000011110000000
            141 13 4 586 29 12 28 13 24 299 callsubr
            -280 hlineto
            hintmask 1000101110000000
            -1 -51 97 -14 rlineto
            -292 vlineto
            15 -127 rlineto
            hintmask 1000011110000000
            -309 483 1 1 rlineto
            -222 hlineto
            hintmask 0010101110000000
            -1 -51 70 246 callgsubr
            hintmask 1000011110000000
            -30 -12 -30 -13 -25 -16 rrcurveto
            return
          </CharString>
          <CharString index="102">
            -10 -20 -6 -23 -23 vvcurveto
            -90 85 -80 124 -28 vhcurveto
            -28 -22 -33 -18 return
          </CharString>
          <CharString index="103">
            rmoveto
            -41 26 -130 -75 18 -35 60 24 rlineto
            -196 vlineto
            -23 -7 -26 -12 -15 -10 3 -15 rcurveline
            210 hlineto
            1 27 return
          </CharString>
          <CharString index="104">
            294 -79 callsubr
            -270 hlineto
            return
          </CharString>
          <CharString index="105">
            rrcurveto
            284 callgsubr
            57 hhcurveto
            39 38 9 20 32 hvcurveto
            -86 -105 callsubr
            -301 -87 callgsubr
            55 -252 hlineto
            -41 -87 -125 -39 -59 22 return
          </CharString>
          <CharString index="106">
            -89 callgsubr
            hstem
            return
          </CharString>
          <CharString index="107">
            -79 callsubr
            -306 hlineto
            return
          </CharString>
          <CharString index="108">
            hlineto
            -1 1 rlineto
            1 return
          </CharString>
          <CharString index="109">
            hintmask 01010000
            305 hmoveto
            hintmask 10010000
            4 49 rlineto
            hintmask 00110000
            190 callsubr
            rrcurveto
            613 58 callsubr
            hintmask 01010000
            -578 67 callsubr
            return
          </CharString>
          <CharString index="110">
            -2 callgsubr
            187 64 callgsubr
            return
          </CharString>
          <CharString index="111">
            -107 callgsubr
            328 return
          </CharString>
          <CharString index="112">
            -98 rmoveto
            56 41 rlineto
            36 vlineto
            -175 76 rlineto
            hintmask 10010100
            116 114 57 193 -9 216 -120 33 rcurveline
            1 -90 -7 -101 -24 -94 -38 -36 -58 -17 -56 29 -21 65 28 124 44 115 -126 46 rcurveline
            -41 -89 -14 -93 -48 vvcurveto
            -149 128 -87 94 -8 vhcurveto
            -16 -28 -20 -25 -23 -22 rrcurveto
            hintmask 10001000
            -68 39 -42 -21 rlineto
            hintmask 01001000
            -6 -139 rlineto
            hintmask 00101000
            46 -13 63 11 39 17 rrcurveto
            endchar
          </CharString>
          <CharString index="113">
            428 rmoveto
            -75 47 41 108 81 -14 rrcurveto
            22 -21 6 -26 -19 vvcurveto
            -42 -32 -43 -55 -43 vhcurveto
            -124 -97 5 -63 rlineto
            hintmask 11110000
            141 -103 rlineto
            32 -23 25 -18 -30 vvcurveto
            -19 -11 -18 -9 -11 vhcurveto
            126 -54 rlineto
            17 18 17 29 32 vvcurveto
            53 -52 38 -52 38 vhcurveto
            -90 65 70 58 rlineto
            hintmask 11101000
            70 58 37 56 60 vvcurveto
            92 -88 127 -125 -92 -48 -70 -60 -47 30 -47 89 -50 vhcurveto
            endchar
          </CharString>
          <CharString index="114">
            389 128 rmoveto
            43 27 22 24 23 17 -19 -29 -37 -29 -29 -43 -15 vhcurveto
            -13 23 -6 21 20 vvcurveto
            return
          </CharString>
          <CharString index="115">
            -261 336 callgsubr
            320 callgsubr
            vstem
            464 -88 callgsubr
            -465 97 callgsubr
            128 callsubr
            80 75 41 64 41 hvcurveto
            -74 112 -49 -83 -111 -39 -79 11 rlinecurve
            50 callsubr
            return
          </CharString>
          <CharString index="116">
            rmoveto
            39 43 -13 -24 43 hvcurveto
            -79 vlineto
            -12 -18 -15 -15 -16 -12 -104 160 rcurveline
            1 7 7 0 8 hhcurveto
            -98 -185 rmoveto
            -40 51 9 74 51 37 107 -164 rcurveline
            -46 -15 -48 1 -33 16 rrcurveto
            endchar
          </CharString>
          <CharString index="117">
            -71 -78 -133 -31 -80 34 rrcurveto
            -23 22 -11 26 25 vvcurveto
            50 46 41 95 vhcurveto
            159 1 callsubr
            177 195 callgsubr
            return
          </CharString>
          <CharString index="118">
            -308 vlineto
            -24 -9 -24 -10 -19 -11 3 -34 rcurveline
            return
          </CharString>
          <CharString index="119">
            rmoveto
            -28 -24 12 23 -15 hvcurveto
            208 -95 callgsubr
            214 -247 hlineto
            -26 -24 -31 -15 -32 hhcurveto
            return
          </CharString>
          <CharString index="120">
            rmoveto
            -6 -26 -34 -7 -24 hhcurveto
            -26 -10 11 35 hvcurveto
            227 87 vlineto
            49 58 -2 43 rlineto
            -137 hlineto
            return
          </CharString>
          <CharString index="121">
            529 rmoveto
            -224 35 138 -311 224 hhcurveto
            127 81 101 140 157 -101 175 -133 -81 -52 -65 -68 -48 25 -50 45 -41 hvcurveto
            -35 36 50 -29 51 hhcurveto
            16 16 3 6 17 hvcurveto
            -71 -17 -45 -39 -62 hhcurveto
            -109 -101 112 319 -59 hvcurveto
            258 -230 rmoveto
            49 -22 22 72 60 hhcurveto
            43 26 -38 -55 9 hvcurveto
            -43 -31 -64 -11 -31 14 rrcurveto
            endchar
          </CharString>
          <CharString index="122">
            -204 55 92 -158 142 hhcurveto
            53 42 22 35 26 hvcurveto
            -36 39 45 -21 53 hhcurveto
            89 62 60 80 50 -24 51 -45 41 hvcurveto
            return
          </CharString>
          <CharString index="123">
            -24 rmoveto
            82 62 63 85 71 -45 66 -63 71 hvcurveto
            -3 4 67 76 85 87 51 52 rlinecurve
            -90 90 -71 -71 -73 -75 -58 -65 rlinecurve
            -92 91 -104 88 -36 31 -63 -74 rcurveline
            64 -54 92 -83 75 -74 rrcurveto
            -54 -68 -34 -60 -56 vvcurveto
            -101 108 -94 100 vhcurveto
            -92 158 rmoveto
            34 20 39 40 52 vhcurveto
            41 -51 16 -36 -29 vvcurveto
            -50 -42 -35 -57 24 vhcurveto
            -13 16 -5 20 16 vvcurveto
            endchar
          </CharString>
          <CharString index="124">
            -15 callgsubr
            218 hlineto
            21 36 -48 80 rlineto
            -368 -69 hlineto
            80 -32 rlineto
            -55 callsubr
            485 122 -91 callsubr
            -569 -107 callgsubr
            return
          </CharString>
          <CharString index="125">
            68 46 45 58 25 27 -8 -18 25 334 callsubr
            47 -35 -49 22 -48 hhcurveto
            return
          </CharString>
          <CharString index="126">
            792 -92 callsubr
            -792 -107 callgsubr
            444 -97 hlineto
            -43 -11 -40 -25 -29 -39 -78 72 168 callsubr
            -106 81 -111 191 -116 hvcurveto
            53 70 rlineto
            -110 69 -75 64 78 vvcurveto
            55 38 39 49 17 18 -4 -10 19 vhcurveto
            -14 -36 -6 -43 4 -51 99 -64 rcurveline
            31 18 rlineto
            return
          </CharString>
          <CharString index="127">
            152 callsubr
            -166 -61 -99 -88 return
          </CharString>
          <CharString index="128">
            134 215 callgsubr
            hstemhm
            27 134 -54 127 238 135 hintmask 01111010
            472 72 callsubr
            -727 41 callgsubr
            hintmask 11110110
            -18 -25 -10 -29 -28 129 callgsubr
            return
          </CharString>
          <CharString index="129">
            -110 -99 rlineto
            -107 3 105 -43 100 hhcurveto
            184 160 144 150 -53 hvcurveto
            -94 31 -142 27 -108 2 14 14 18 16 20 15 rrcurveto
            -1 11 11 -1 12 hhcurveto
            return
          </CharString>
          <CharString index="130">
            92 154 99 21 -7 callsubr
            201 132 21 114 168 135 return
          </CharString>
          <CharString index="131">
            -52 callgsubr
            -62 11 -50 -8 -39 -18 rlinecurve
            -26 23 -16 27 28 vvcurveto
            47 43 28 44 186 callgsubr
            return
          </CharString>
          <CharString index="132">
            rmoveto
            -19 25 -40 37 -36 14 -29 -18 -31 -40 -19 -39 20 -28 47 -35 31 -12 30 20 33 41 13 35 rrcurveto
            endchar
          </CharString>
          <CharString index="133">
            rmoveto
            -150 178 -96 -83 60 -48 55 -53 56 -54 rlinecurve
            endchar
          </CharString>
          <CharString index="134">
            -20 65 101 hstem
            132 133 160 135 vstem
            26 286 rmoveto
            24 -71 89 -79 69 -28 143 callsubr
            -671 180 callsubr
            return
          </CharString>
          <CharString index="135">
            99 callgsubr
            227 259 callsubr
            return
          </CharString>
          <CharString index="136">
            -21 -206 rmoveto
            -25 -31 6 14 -23 hvcurveto
            -41 52 10 73 51 37 113 -173 rcurveline
            -6 -17 -19 -3 -18 hhcurveto
            return
          </CharString>
          <CharString index="137">
            -17 130 rlineto
            -68 hlineto
            -50 -130 -29 -14 -27 -16 -25 -18 rlinecurve
            4 -52 70 1 rlineto
            return
          </CharString>
          <CharString index="138">
            320 -79 callsubr
            return
          </CharString>
          <CharString index="139">
            -87 callsubr
            20 -6 callgsubr
            return
          </CharString>
          <CharString index="140">
            5 -42 29 -44 77 -51 46 43 rcurveline
            return
          </CharString>
          <CharString index="141">
            -75 69 -84 callsubr
            15 return
          </CharString>
          <CharString index="142">
            276 32 callgsubr
            return
          </CharString>
          <CharString index="143">
            62 -51 51 -32 32 78 callgsubr
            return
          </CharString>
          <CharString index="144">
            hlineto
            48 -31 22 -28 -31 vvcurveto
            -37 -31 -21 -81 -14 vhcurveto
            40 -38 -45 9 -86 271 callsubr
            return
          </CharString>
          <CharString index="145">
            rmoveto
            hintmask 10110000
            -38 49 -25 32 48 38 callgsubr
            hintmask 11010000
            80 callgsubr
            91 -141 rcurveline
            2 -6 3 -5 2 -5 rrcurveto
            58 hlineto
            endchar
          </CharString>
          <CharString index="146">
            -90 callgsubr
            -286 -87 callgsubr
            40 -255 hlineto
            -40 -79 -101 -30 -72 11 -46 callgsubr
            return
          </CharString>
          <CharString index="147">
            625 538 rmoveto
            181 callgsubr
            return
          </CharString>
          <CharString index="148">
            -47 rmoveto
            96 20 15 34 -101 278 16 39 16 60 -2 46 rlinecurve
            -134 42 -31 -33 30 -114 -34 -80 -92 -24 -46 56 rlinecurve
            -24 81 42 118 54 120 -125 51 rcurveline
            -49 -88 -31 -99 -72 vvcurveto
            -81 40 -72 55 -47 vhcurveto
            -37 43 52 -22 47 hhcurveto
            41 41 17 31 32 hvcurveto
            endchar
          </CharString>
          <CharString index="149">
            90 87 rlineto
            23 -15 11 -23 -22 vvcurveto
            -43 -37 -42 -63 -80 -71 69 105 -97 vhcurveto
            -57 -53 rlineto
            -136 112 117 -92 113 hhcurveto
            94 70 63 87 return
          </CharString>
          <CharString index="150">
            hhcurveto
            31 32 7 17 30 hvcurveto
            -89 vlineto
            -99 callgsubr
            return
          </CharString>
          <CharString index="151">
            -108 272 30 22 30 29 14 29 rlinecurve
            -107 137 return
          </CharString>
          <CharString index="152">
            198 110 13 -87 callsubr
            30 132 247 135 hintmask 11011100
            285 370 rmoveto
            39 43 -13 -23 42 hvcurveto
            -80 vlineto
            -12 -17 -15 -15 -16 -12 -103 159 rcurveline
            1 7 7 0 8 hhcurveto
            -98 -185 rmoveto
            -40 51 9 74 51 37 107 -164 rcurveline
            -45 -16 -49 1 -33 17 rrcurveto
            return
          </CharString>
          <CharString index="153">
            vlineto
            -26 67 70 -15 60 hhcurveto
            180 100 130 147 136 -85 119 -136 -25 hvcurveto
            -111 -77 rlineto
            280 vlineto
            -48 44 rlineto
            1 vlineto
            122 -353 rmoveto
            67 40 -72 -80 -63 -25 -67 -44 -34 hvcurveto
            -44 -6 -38 7 -30 14 rrcurveto
            278 vlineto
            14 26 25 9 23 hhcurveto
            endchar
          </CharString>
          <CharString index="154">
            -107 callgsubr
            193 return
          </CharString>
          <CharString index="155">
            168 callsubr
            -106 81 -111 191 -116 hvcurveto
            53 70 rlineto
            -113 72 -73 65 77 vvcurveto
            60 44 31 44 return
          </CharString>
          <CharString index="156">
            -107 callgsubr
            123 hlineto
            9 -213 rlineto
            -77 hlineto
            203 168 rmoveto
            -98 callgsubr
            160 hlineto
            33 callsubr
            return
          </CharString>
          <CharString index="157">
            -18 20 -14 27 -11 27 rrcurveto
            101 147 callsubr
            return
          </CharString>
          <CharString index="158">
            160 callgsubr
            190 vmoveto
            -41 callsubr
            endchar
          </CharString>
          <CharString index="159">
            -27 callsubr
            180 hlineto
            -60 45 rlineto
            return
          </CharString>
          <CharString index="160">
            20 -18 4 -28 -31 vvcurveto
            return
          </CharString>
          <CharString index="161">
            96 callgsubr
            -46 -21 -52 -74 -45 rrcurveto
            -26 21 -15 25 31 vvcurveto
            -114 45 rmoveto
            -59 34 -54 53 -46 vhcurveto
            return
          </CharString>
          <CharString index="162">
            28 21 27 29 13 28 263 callsubr
            15 -91 -48 -23 -62 -7 -51 22 rlinecurve
            -30 23 -15 36 34 vvcurveto
            51 39 56 95 vhcurveto
            return
          </CharString>
          <CharString index="163">
            -22 -27 -12 -31 -32 129 callgsubr
            245 callgsubr
            return
          </CharString>
          <CharString index="164">
            126 callsubr
            -336 vlineto
            return
          </CharString>
          <CharString index="165">
            -80 callgsubr
            -8 rlineto
            return
          </CharString>
          <CharString index="166">
            36 callgsubr
            50 42 return
          </CharString>
          <CharString index="167">
            114 -1 -104 100 -101 hhcurveto
            return
          </CharString>
          <CharString index="168">
            310 rmoveto
            -78 -67 -70 -109 36 vhcurveto
            -22 25 -11 30 31 vvcurveto
            78 70 80 107 -42 vhcurveto
            22 -28 10 -31 -31 vvcurveto
            117 -48 rmoveto
            132 -125 135 -127 -94 -103 -74 -120 -141 140 -118 123 99 87 76 110 vhcurveto
            endchar
          </CharString>
          <CharString index="169">
            50 42 40 101 53 vhcurveto
            82 -35 91 -17 81 11 rrcurveto
            -224 vlineto
            -88 callsubr
            -325 -87 callgsubr
            80 -173 hlineto
            -67 -19 -62 -6 -53 5 rrcurveto
            32 32 18 40 40 vvcurveto
            return
          </CharString>
          <CharString index="170">
            vlineto
            71 callsubr
            return
          </CharString>
          <CharString index="171">
            104 callsubr
            204 callgsubr
            return
          </CharString>
          <CharString index="172">
            133 53 -96 178 30 22 27 30 263 callgsubr
            return
          </CharString>
          <CharString index="173">
            56 29 rcurveline
            77 1 279 -95 callgsubr
            return
          </CharString>
          <CharString index="174">
            vlineto
            -26 -9 -29 -12 -21 -12 3 -34 rcurveline
            return
          </CharString>
          <CharString index="175">
            -221 231 111 hstem
            32 352 vstem
            367 231 rmoveto
            17 35 -48 76 rlineto
            -287 -93 callgsubr
            48 -77 rlineto
            endchar
          </CharString>
          <CharString index="176">
            64 callgsubr
            -657 -107 callgsubr
            return
          </CharString>
          <CharString index="177">
            rmoveto
            -180 hlineto
            90 236 rlineto
            endchar
          </CharString>
          <CharString index="178">
            -99 callgsubr
            hintmask 10111100
            44 callgsubr
            return
          </CharString>
          <CharString index="179">
            14 rmoveto
            -88 callsubr
            return
          </CharString>
          <CharString index="180">
            -107 callgsubr
            76 -96 callsubr
            return
          </CharString>
          <CharString index="181">
            -168 vlineto
            14 callgsubr
            return
          </CharString>
          <CharString index="182">
            rmoveto
            89 56 62 10 67 -69 135 -135 rcurveline
            71 31 -80 246 -74 225 -126 47 366 callsubr
            57 -33 52 -137 rlinecurve
            58 -152 -102 121 -99 118 -94 21 -118 -86 rlinecurve
            endchar
          </CharString>
          <CharString index="183">
            -1 callsubr
            132 133 228 callsubr
            175 hlineto
            -30 callgsubr
            -381 180 callsubr
            return
          </CharString>
          <CharString index="184">
            hlineto
            -31 -43 -5 -20 -39 hvcurveto
            return
          </CharString>
          <CharString index="185">
            720 12 -21 102 101 -59 115 55 123 -112 122 -80 106 29 32 callsubr
            144 141 154 135 193 112 hintmask 1100101111111000
            75 callgsubr
            return
          </CharString>
          <CharString index="186">
            633 rmoveto
            -187 -233 rlineto
            -57 -70 -20 -60 -45 vvcurveto
            -109 115 -127 126 77 64 49 79 49 vhcurveto
            -86 92 rlineto
            -69 -46 -51 -34 -48 hhcurveto
            -47 -39 32 52 30 13 32 55 67 hvcurveto
            166 206 rlineto
            endchar
          </CharString>
          <CharString index="187">
            -310 -69 hlineto
            80 -32 rlineto
            -55 callsubr
            return
          </CharString>
          <CharString index="188">
            -48 -69 -102 -28 -62 22 rrcurveto
            endchar
          </CharString>
          <CharString index="189">
            -134 -65 -75 -83 -126 145 -86 120 70 75 30 62 49 hvcurveto
            -71 96 -62 -68 -116 -30 -73 29 rlinecurve
            -20 18 -5 23 16 vvcurveto
            45 43 35 71 vhcurveto
            142 149 hlineto
            -46 34 51 14 49 29 43 49 rlinecurve
            return
          </CharString>
          <CharString index="190">
            rmoveto
            -51 -4 -28 -23 -34 hhcurveto
            -35 -27 25 50 -6 hvcurveto
            -89 -8 rlineto
            -98 12 70 -53 83 hhcurveto
            79 70 49 104 8 hvcurveto
            return
          </CharString>
          <CharString index="191">
            135 vstem
            -83 callgsubr
            return
          </CharString>
          <CharString index="192">
            -63 18 -63 -62 -88 hhcurveto
            -88 -87 55 120 -76 hvcurveto
            return
          </CharString>
          <CharString index="193">
            129 callgsubr
            15 -10 16 -9 17 -8 -127 -88 rcurveline
            98 -80 349 263 -74 97 -26 -24 -27 -22 -32 -22 rlinecurve
            -54 -38 -69 -17 -47 18 -52 callgsubr
            rlineto
            return
          </CharString>
          <CharString index="194">
            -25 27 -11 29 24 vvcurveto
            42 35 32 46 186 callgsubr
            92 callsubr
            return
          </CharString>
          <CharString index="195">
            hhcurveto
            -123 -96 -69 -114 -92 63 -82 114 -104 hvcurveto
            67 59 rlineto
            -84 81 -31 47 48 vvcurveto
            60 46 39 68 return
          </CharString>
          <CharString index="196">
            vvcurveto
            -60 54 -56 85 8 vhcurveto
            123 62 -21 47 rlineto
            -85 352 callgsubr
            return
          </CharString>
          <CharString index="197">
            94 17 -20 21 338 callsubr
            return
          </CharString>
          <CharString index="198">
            -72 71 rlineto
            49 -50 -48 27 -52 hhcurveto
            -52 -56 -28 -50 -59 hvcurveto
            return
          </CharString>
          <CharString index="199">
            100 -51 -58 58 -84 hhcurveto
            return
          </CharString>
          <CharString index="200">
            80 vvcurveto
            hintmask 10111100
            -78 callsubr
            return
          </CharString>
          <CharString index="201">
            51 -51 66 -66 77 376 206 -75 75 -75 80 hstemhm
            247 152 return
          </CharString>
          <CharString index="202">
            hlineto
            -103 callgsubr
            return
          </CharString>
          <CharString index="203">
            rmoveto
            82 79 rlineto
            18 -12 11 -20 -22 vvcurveto
            -39 -33 -38 -55 -68 -68 58 100 -92 vhcurveto
            -50 -54 rlineto
            -124 103 108 -78 99 hhcurveto
            84 65 58 79 83 -72 82 -85 -49 -46 -28 -47 -29 hvcurveto
            endchar
          </CharString>
          <CharString index="204">
            241 callsubr
            -26 45 -12 38 20 26 30 13 42 -11 40 354 callgsubr
            return
          </CharString>
          <CharString index="205">
            112 18 -87 callsubr
            40 114 197 122 return
          </CharString>
          <CharString index="206">
            516 -48 callgsubr
            return
          </CharString>
          <CharString index="207">
            22 -34 -42 5 -68 hhcurveto
            -62 hlineto
            1 5 0 5 5 362 callsubr
            13 10 13 10 12 10 rlinecurve
            172 hlineto
            33 21 -2 -7 19 hvcurveto
            40 -60 68 -60 52 -21 rrcurveto
            return
          </CharString>
          <CharString index="208">
            -25 -22 -12 -29 -29 vvcurveto
            -77 85 -83 114 -32 vhcurveto
            150 46 rlineto
            -63 13 -69 -42 -72 hhcurveto
            -91 -77 62 87 -57 hvcurveto
            -54 -47 rlineto
            -149 99 113 -61 106 hhcurveto
            116 71 74 81 return
          </CharString>
          <CharString index="209">
            -24 -58 -7 -60 23 rlinecurve
            -27 callsubr
            return
          </CharString>
          <CharString index="210">
            rmoveto
            40 40 -14 -29 43 hvcurveto
            16 -54 -20 -44 -34 -29 -109 168 rcurveline
            1 8 8 1 8 hhcurveto
            return
          </CharString>
          <CharString index="211">
            410 702 85 callgsubr
            return
          </CharString>
          <CharString index="212">
            101 28 -20 hstemhm
            26 133 -53 127 return
          </CharString>
          <CharString index="213">
            -95 -65 -66 -90 -99 107 -92 123 return
          </CharString>
          <CharString index="214">
            95 -101 rlineto
            97 65 62 79 91 vvcurveto
            return
          </CharString>
          <CharString index="215">
            rmoveto
            -22 14 -7 18 19 vvcurveto
            62 77 57 105 2 vhcurveto
            6 -20 2 -83 -90 -70 -71 1 rlinecurve
            endchar
          </CharString>
          <CharString index="216">
            -90 -35 15 -89 -48 -24 -61 -10 -52 24 rlinecurve
            -31 23 -14 38 31 vvcurveto
            52 39 56 218 callgsubr
            return
          </CharString>
          <CharString index="217">
            -53 -41 -51 -74 -86 -63 69 123 -75 vhcurveto
            -66 -46 rlineto
            -206 115 129 -61 93 hhcurveto
            return
          </CharString>
          <CharString index="218">
            -107 -67 rlineto
            -13 12 -6 14 15 vvcurveto
            39 35 43 57 75 47 -72 -156 113 vhcurveto
            61 50 return
          </CharString>
          <CharString index="219">
            hhcurveto
            91 56 154 callsubr
            133 return
          </CharString>
          <CharString index="220">
            hstemhm
            126.5 131 callsubr
            return
          </CharString>
          <CharString index="221">
            -136 31 -115 -87 -114 vvcurveto
            -134 return
          </CharString>
          <CharString index="222">
            125 74 135 return
          </CharString>
          <CharString index="223">
            rmoveto
            -16 20 -33 30 -28 211 callsubr
            return
          </CharString>
          <CharString index="224">
            92 callsubr
            -84 -58 -58 -73 193 callsubr
            hvcurveto
            return
          </CharString>
          <CharString index="225">
            17 59 7 72 -3 39 rrcurveto
            24 -34 -74 37 -105 hhcurveto
            -240 -125 -177 -185 hvcurveto
            return
          </CharString>
          <CharString index="226">
            -69 hlineto
            80 -32 rlineto
            return
          </CharString>
          <CharString index="227">
            -21 45 102 49 122 59 121 -99 119 -85 65 206 callgsubr
            25 354 callsubr
            135 120 119 109 219 115 callsubr
            return
          </CharString>
          <CharString index="228">
            rrcurveto
            154 hlineto
            84 55 -1 -28 -29 -57 -15 -95 -4 hvcurveto
            -17 -44 rlineto
            -1 hlineto
            -142 66 105 -70 106 hhcurveto
            33 31 9 20 28 hvcurveto
            -74 vlineto
            96 -53 -90 callsubr
            return
          </CharString>
          <CharString index="229">
            -268 170 hstem
            -78 159 vstem
            -4 -98 rmoveto
            -38 -21 -30 -32 -6 -46 18 -36 28 -22 42 -13 36 19 24 28 11 38 -8 35 -37 33 -40 17 rrcurveto
            endchar
          </CharString>
          <CharString index="230">
            43 -62 hhcurveto
            -44 callgsubr
            return
          </CharString>
          <CharString index="231">
            101 -99.5 229.5 hstemhm
            82 145 return
          </CharString>
          <CharString index="232">
            -27 -25 10 21 -17 hvcurveto
            228 -95 callgsubr
            return
          </CharString>
          <CharString index="233">
            -81 callgsubr
            -9 rlineto
            return
          </CharString>
          <CharString index="234">
            327 -325 89 78 rlineto
            35 vlineto
            return
          </CharString>
          <CharString index="235">
            -153 65 123 -92 119 hhcurveto
            return
          </CharString>
          <CharString index="236">
            -130 hlineto
            -134 61 rlineto
            return
          </CharString>
          <CharString index="237">
            24 -71 89 -79 69 -28 return
          </CharString>
          <CharString index="238">
            131.5 return
          </CharString>
          <CharString index="239">
            40 -38 -44 9 -87 hhcurveto
            -212 35 callgsubr
            110 87 vlineto
            47 23 -4 -19 26 hvcurveto
            39 -60 71 -64 54 -22 rrcurveto
            return
          </CharString>
          <CharString index="240">
            hlineto
            6 -37 29 -42 70 -46 47 38 rcurveline
            return
          </CharString>
          <CharString index="241">
            rmoveto
            -38 -21 -30 -32 -6 -45 18 return
          </CharString>
          <CharString index="242">
            -343 -48 rmoveto
            -17 17 -8 20 139 callgsubr
            6 rrcurveto
            33 -27 20 -31 -33 vvcurveto
            -88 -135 -51 -95 45 vhcurveto
            return
          </CharString>
          <CharString index="243">
            -23 33 -10 27 26 vvcurveto
            47 33 38 56 20 27 -5 -20 24 vhcurveto
            20 63 rlineto
            30 -27 -39 28 -58 hhcurveto
            -84 -53 -58 -69 -49 28 -55 65 -41 hvcurveto
            endchar
          </CharString>
          <CharString index="244">
            -79 -242 112 139 103 -90 -21 154 66 205 129 -124 70 return
          </CharString>
          <CharString index="245">
            -231 89 hstem
            -187 373 vstem
            -187 -167 rmoveto
            6 -64 rlineto
            320 hlineto
            47 42 -5 47 rlineto
            -255 hlineto
            -31 -43 -6 -19 -39 hvcurveto
            endchar
          </CharString>
          <CharString index="246">
            vvcurveto
            -129 148 -98 137 81 84 35 72 61 vhcurveto
            return
          </CharString>
          <CharString index="247">
            57 60 78 vvcurveto
            85 -69 74 -72 -30 -29 -13 -20 -26 vhcurveto
            return
          </CharString>
          <CharString index="248">
            -107 callgsubr
            333 245 callsubr
            return
          </CharString>
          <CharString index="249">
            vvcurveto
            29 26 22 58 vhcurveto
            return
          </CharString>
          <CharString index="250">
            66 callsubr
            220 -524 hlineto
            -106 callsubr
            return
          </CharString>
          <CharString index="251">
            329 callsubr
            -93 105 -78 109 59 47 230 callsubr
            return
          </CharString>
          <CharString index="252">
            -375 52 rmoveto
            -41 -36 -18 -27 -33 hvcurveto
            124 -95 callgsubr
            407 hlineto
            return
          </CharString>
          <CharString index="253">
            rmoveto
            56 48 61 51 58 45 -91 73 rcurveline
            -149 -160 rlineto
            266 -66 rmoveto
            return
          </CharString>
          <CharString index="254">
            21 49 50 65 vvcurveto
            -67 callsubr
            return
          </CharString>
          <CharString index="255">
            11 -25 -14 -24 -33 -15 -31 return
          </CharString>
          <CharString index="256">
            -38 -29 -21 -42 -41 vvcurveto
            -96 117 -76 100 28 24 6 10 22 vhcurveto
            -41 216 callsubr
            333 vlineto
            97 58 62 104 108 vvcurveto
            return
          </CharString>
          <CharString index="257">
            rmoveto
            hintmask 10100000
            83 39 63 81 71 vvcurveto
            48 -30 43 -59 22 vhcurveto
            -41 -22 -31 -33 -7 -49 53 -43 rcurveline
            -3 -35 -25 -41 -41 -35 rrcurveto
            endchar
          </CharString>
          <CharString index="258">
            vstem
            -505 765 rmoveto
            108 71 66 -7 59 -93 98 -152 rcurveline
            69 36 -113 173 -103 188 callgsubr
            return
          </CharString>
          <CharString index="259">
            181 callgsubr
            -99 -77 hlineto
            return
          </CharString>
          <CharString index="260">
            -311 205 callgsubr
            145 return
          </CharString>
          <CharString index="261">
            63 79 173 callsubr
            hvcurveto
            return
          </CharString>
          <CharString index="262">
            77 520 rmoveto
            -55 35 -59 57 -50 vhcurveto
            -155 -97 85 -95 183 120 37 -17 40 -13 42 -8 rlinecurve
            -211 -150 89 -88 return
          </CharString>
          <CharString index="263">
            560 93 rmoveto
            -3 -19 -16 -3 -15 hhcurveto
            -15 -10 9 14 hvcurveto
            581 vlineto
            -49 45 238 callgsubr
            return
          </CharString>
          <CharString index="264">
            -36 50 rlineto
            -289 -107 callgsubr
            284 -2 hlineto
            193 callsubr
            vhcurveto
            -2 -2 -1 -2 -2 -2 rrcurveto
            -349 hlineto
            return
          </CharString>
          <CharString index="265">
            20 callsubr
            227 callgsubr
            hvcurveto
            2 -1 return
          </CharString>
          <CharString index="266">
            rmoveto
            -28 -29 6 12 -24 hvcurveto
            -20 21 -9 25 22 vvcurveto
            43 34 40 78 vhcurveto
            96 hlineto
            22 -22 10 -26 -26 vvcurveto
            -63 -63 -32 -67 vhcurveto
            return
          </CharString>
          <CharString index="267">
            -106 callsubr
            -671 -107 callgsubr
            132 hlineto
            2 return
          </CharString>
          <CharString index="268">
            vlineto
            -115 -56 -59 -63 -84 96 -90 128 -36 hvcurveto
            146 52 rlineto
            return
          </CharString>
          <CharString index="269">
            -107 callgsubr
            60 -239 hlineto
            -110 68 -76 91 -43 vhcurveto
            return
          </CharString>
          <CharString index="270">
            -62 -50 20 38 22 21 26 33 25 hvcurveto
            97 -11 90 -21 53 -23 rrcurveto
            return
          </CharString>
          <CharString index="271">
            13 -23 -24 -52 -59 -53 -83 -61 hvcurveto
            95 return
          </CharString>
          <CharString index="272">
            -133 -20 82 349 85 return
          </CharString>
          <CharString index="273">
            101 -71 95 24 114 -87 -21 390 113 10 -87 callsubr
            64 107 -84 113 105 109 -13 119 26 94 return
          </CharString>
          <CharString index="274">
            rmoveto
            18 -73 63 -88 64 -40 60 27 rcurveline
            110 return
          </CharString>
          <CharString index="275">
            rcurveline
            10 -20 -23 5 -23 hhcurveto
            -78 -86 -58 -109 return
          </CharString>
          <CharString index="276">
            -314 0 49 -49 67 -67 79 hstemhm
            91 145 return
          </CharString>
          <CharString index="277">
            176 callgsubr
            rlineto
            return
          </CharString>
          <CharString index="278">
            287 callsubr
            59 107 -79 113 -64 104 161 119 -104 109 return
          </CharString>
          <CharString index="279">
            -87 callsubr
            37 126 108 118 -27 129 -11 92 return
          </CharString>
          <CharString index="280">
            50 -23 50 -44 40 return
          </CharString>
          <CharString index="281">
            116 2 55 84 56 hhcurveto
            38 25 -35 -43 -58 -49 -94 -121 -88 hvcurveto
            101 -87 rlineto
            135 95 50 105 84 vvcurveto
            return
          </CharString>
          <CharString index="282">
            57 29 rcurveline
            91 253 vlineto
            -32 116 rlineto
            -225 hlineto
            -2 172 -98 callgsubr
            240 hlineto
            -30 callgsubr
            return
          </CharString>
          <CharString index="283">
            -61 callgsubr
            endchar
          </CharString>
          <CharString index="284">
            -133 30 -107 -84 -109 vvcurveto
            return
          </CharString>
          <CharString index="285">
            hvcurveto
            -90 vlineto
            -99 callgsubr
            return
          </CharString>
          <CharString index="286">
            30 -14 17 -32 -32 vvcurveto
            -47 -37 -37 -59 -61 -54 42 107 -72 vhcurveto
            -63 -49 rlineto
            -171 103 113 -38 71 hhcurveto
            return
          </CharString>
          <CharString index="287">
            -107 callgsubr
            132 hlineto
            2 -204 rlineto
            -75 hlineto
            return
          </CharString>
          <CharString index="288">
            -132 30 -108 -83 -110 vvcurveto
            -76 53 -63 60 -37 vhcurveto
            return
          </CharString>
          <CharString index="289">
            11 callsubr
            297 hlineto
            return
          </CharString>
          <CharString index="290">
            -174 -52 rlineto
            -16 14 -11 15 17 vvcurveto
            32 35 19 49 vhcurveto
            return
          </CharString>
          <CharString index="291">
            84 -74 122 -119 -85 -65 -62 -81 vhcurveto
            return
          </CharString>
          <CharString index="292">
            85 -122 rlineto
            148 callgsubr
            return
          </CharString>
          <CharString index="293">
            hstemhm
            59 136 191 134 -48 138 return
          </CharString>
          <CharString index="294">
            215 callgsubr
            28 -20 hstemhm
            return
          </CharString>
          <CharString index="295">
            -22 47 rlineto
            -84 352 callgsubr
            return
          </CharString>
          <CharString index="296">
            vvcurveto
            74 -52 77 -102 31 vhcurveto
            return
          </CharString>
          <CharString index="297">
            -20 12 -27 10 -26 8 return
          </CharString>
          <CharString index="298">
            551 -95 callgsubr
            return
          </CharString>
          <CharString index="299">
            129 175 129 return
          </CharString>
          <CharString index="300">
            -62 41 -55 73 -49 return
          </CharString>
          <CharString index="301">
            -93 callgsubr
            rlineto
            return
          </CharString>
          <CharString index="302">
            -64 callgsubr
            213 103 -84 124 hstemhm
            -467 118 411 80 -67 135 hintmask 11010010
            return
          </CharString>
          <CharString index="303">
            rmoveto
            -24 33 -38 35 -39 20 -34 -24 -31 -39 -21 -42 25 -33 42 -31 38 -17 33 23 31 37 18 38 rrcurveto
            return
          </CharString>
          <CharString index="304">
            rmoveto
            -25 -25 11 20 -15 hvcurveto
            228 -95 callgsubr
            250 -233 hlineto
            -47 -29 -50 -24 -46 hhcurveto
            endchar
          </CharString>
          <CharString index="305">
            -64 callgsubr
            210 124 -121 103 hstemhm
            -300 112 263 135 hintmask 11010100
            return
          </CharString>
          <CharString index="306">
            241 callsubr
            -25 45 -13 38 20 26 30 13 42 -11 40 354 callgsubr
            return
          </CharString>
          <CharString index="307">
            302 hlineto
            26 -21 12 -23 -25 vvcurveto
            -31 -18 -26 -35 -20 vhcurveto
            -44 -1 -50 -19 -35 -30 77 -121 rcurveline
            return
          </CharString>
          <CharString index="308">
            -21 98 101 114 122 -72 105 30 -87 callsubr
            22 129 176 135 187 112 return
          </CharString>
          <CharString index="309">
            -66 -77 -130 -46 -82 33 rrcurveto
            -16 17 -9 20 23 vvcurveto
            return
          </CharString>
          <CharString index="310">
            62 -46 40 98 92 hhcurveto
            23 24 215 callsubr
            return
          </CharString>
          <CharString index="311">
            226 301 rmoveto
            103 84 rlineto
            38 -15 23 -36 -39 vvcurveto
            return
          </CharString>
          <CharString index="312">
            100 23 21 5 8 19 vhcurveto
            -92 vlineto
            -99 callgsubr
            return
          </CharString>
          <CharString index="313">
            0 49 -49 66 -66 return
          </CharString>
          <CharString index="314">
            -64 callgsubr
            213 103 -95 124 hstemhm
            -384 115 344 135 hintmask 11010100
            return
          </CharString>
          <CharString index="315">
            -13 13 -7 17 16 vvcurveto
            21 13 22 24 10 vhcurveto
            -32 56 56 -13 48 hhcurveto
            19 17 2 3 17 hvcurveto
            return
          </CharString>
          <CharString index="316">
            -70 -20 81 538 79 hstem
            54 144 return
          </CharString>
          <CharString index="317">
            76 47 46 64 31 30 -10 -21 28 vhcurveto
            return
          </CharString>
          <CharString index="318">
            148 callsubr
            16 -23 38 return
          </CharString>
          <CharString index="319">
            125 40 -89 callgsubr
            return
          </CharString>
          <CharString index="320">
            -71 49 28 85 65 -10 return
          </CharString>
          <CharString index="321">
            hlineto
            17 34 -51 77 rlineto
            return
          </CharString>
          <CharString index="322">
            -6 -11 24 hvcurveto
            -79 vlineto
            return
          </CharString>
          <CharString index="323">
            vlineto
            79 -41 30 14 rlineto
            return
          </CharString>
          <CharString index="324">
            -35 48 rlineto
            -482 -107 callgsubr
            480 hlineto
            33 callsubr
            return
          </CharString>
          <CharString index="325">
            40 callsubr
            -99 -77 hlineto
            return
          </CharString>
          <CharString index="326">
            247 callsubr
            -205 hlineto
            return
          </CharString>
          <CharString index="327">
            -295 74 callgsubr
            return
          </CharString>
          <CharString index="328">
            -12 20 rmoveto
            -163 -154 86 -72 110 107 rlineto
            return
          </CharString>
          <CharString index="329">
            -74 -31 -73 -49 -54 hhcurveto
            -43 29 36 59 77 11 rrcurveto
            return
          </CharString>
          <CharString index="330">
            -170 116 112 -74 115 hhcurveto
            122 75 return
          </CharString>
          <CharString index="331">
            -57 20 -55 -72 -96 hhcurveto
            -81 -79 49 123 -81 hvcurveto
            return
          </CharString>
          <CharString index="332">
            -87 callsubr
            49 return
          </CharString>
          <CharString index="333">
            -16 283 callsubr
            return
          </CharString>
          <CharString index="334">
            -9 45 rlineto
            -3 -19 return
          </CharString>
          <CharString index="335">
            vstem
            72 callgsubr
            return
          </CharString>
          <CharString index="336">
            75 -9 rlineto
            -442 vlineto
            -74 -33 -36 -68 -23 vhcurveto
            15 -43 rlineto
            174 23 57 84 59 vvcurveto
            return
          </CharString>
          <CharString index="337">
            24 43 33 vhcurveto
            28 -97 117 callgsubr
            return
          </CharString>
          <CharString index="338">
            2 -7 callgsubr
            4 callgsubr
            return
          </CharString>
          <CharString index="339">
            266 callsubr
            18 -11 17 -9 return
          </CharString>
          <CharString index="340">
            256 -254 90 66 rlineto
            28 vlineto
            -149 97 10 8 9 7 8 7 rlinecurve
            293 return
          </CharString>
          <CharString index="341">
            vvcurveto
            -92 63 -82 114 -104 vhcurveto
            67 59 rlineto
            -84 81 -31 47 48 vvcurveto
            60 46 39 68 return
          </CharString>
          <CharString index="342">
            hlineto
            -107 -97 -74 -127 hvcurveto
            -75 0 callgsubr
            return
          </CharString>
          <CharString index="343">
            -204 55 92 -158 142 308 callsubr
            return
          </CharString>
          <CharString index="344">
            123 hlineto
            -24 callsubr
            -56 return
          </CharString>
          <CharString index="345">
            311 hmoveto
            4 49 -25 15 -31 12 -31 8 rlinecurve
            return
          </CharString>
          <CharString index="346">
            47 -20 98 191 34 144 231 -88 88 return
          </CharString>
          <CharString index="347">
            vlineto
            -275 -196 95 -72 180 135 rlineto
            return
          </CharString>
          <CharString index="348">
            213 callgsubr
            19 -39 32 return
          </CharString>
          <CharString index="349">
            101 hstemhm
            53 138 -117 126 return
          </CharString>
          <CharString index="350">
            -60 -187 -21 701 -89 callgsubr
            return
          </CharString>
          <CharString index="351">
            -89 callgsubr
            -71 95 hstemhm
            return
          </CharString>
          <CharString index="352">
            -128 hlineto
            -94 48 rlineto
            return
          </CharString>
          <CharString index="353">
            rlinecurve
            -112 137 return
          </CharString>
          <CharString index="354">
            -98 callgsubr
            171 64 callgsubr
            -285 -87 callgsubr
            39 return
          </CharString>
          <CharString index="355">
            -107 callgsubr
            223 -39 hlineto
            -70 -11 -77 -41 -46 -38 69 -120 rcurveline
            return
          </CharString>
          <CharString index="356">
            rmoveto
            65 91 32 131 -4 33 -98 20 rcurveline
            -40 -39 1 -39 -10 -82 -33 -84 rlinecurve
            return
          </CharString>
          <CharString index="357">
            rmoveto
            158 -182 77 52 -95 163 89 171 -74 48 -155 -186 rlineto
            return
          </CharString>
          <CharString index="358">
            vlineto
            256 callsubr
            return
          </CharString>
          <CharString index="359">
            44 callsubr
            -90 -35 16 -96 rlineto
            return
          </CharString>
          <CharString index="360">
            -205 83 -83 305 -92 -21 35 -21 311 127 54 -87 callsubr
            return
          </CharString>
          <CharString index="361">
            hlineto
            289 callsubr
            -65 -14 vhcurveto
            36 -60 -59 17 -63 hhcurveto
            return
          </CharString>
          <CharString index="362">
            308 callsubr
            35 23 -2 -9 22 hvcurveto
            return
          </CharString>
          <CharString index="363">
            -103 callgsubr
            171 64 callgsubr
            return
          </CharString>
          <CharString index="364">
            305 callgsubr
            -243 -164 94 return
          </CharString>
          <CharString index="365">
            15 -10 16 -9 16 -7 -126 -89 rcurveline
            98 -80 240 184 rlineto
            endchar
          </CharString>
          <CharString index="366">
            vlineto
            40 -52 59 -49 46 -19 335 callsubr
            return
          </CharString>
          <CharString index="367">
            49 -49 64 -64 82 -82 751 -381 101 return
          </CharString>
          <CharString index="368">
            95 -86 94 -99 -84 -63 -68 -74 vhcurveto
            120 return
          </CharString>
          <CharString index="369">
            hlineto
            -32 -48 130 callsubr
            rlinecurve
            56 return
          </CharString>
          <CharString index="370">
            246 callsubr
            -90 -35 return
          </CharString>
          <CharString index="371">
            49 216 callgsubr
            return
          </CharString>
          <CharString index="372">
            115 88 130 return
          </CharString>
          <CharString index="373">
            -107 callgsubr
            75 262 callgsubr
            return
          </CharString>
          <CharString index="374">
            105 -19 122 64 101 -84 119 6 -87 callsubr
            116 132 return
          </CharString>
          <CharString index="375">
            244 callgsubr
            rrcurveto
            -32 25 -15 37 31 vvcurveto
            54 41 58 95 vhcurveto
            return
          </CharString>
          <CharString index="376">
            75 callgsubr
            33 callgsubr
            return
          </CharString>
          <CharString index="377">
            -43 -42 -21 -113 -14 vhcurveto
            -17 return
          </CharString>
          <CharString index="378">
            hhcurveto
            -191 119 callsubr
            return
          </CharString>
          <CharString index="379">
            -12 -56 -7 -90 4 -40 return
          </CharString>
          <CharString index="380">
            -73 -16 112 315 84 -8 -20 hstemhm
            14 152 174 145 return
          </CharString>
          <CharString index="381">
            101 198 110 13 -87 callsubr
            26 132 248 135 return
          </CharString>
          <CharString index="382">
            77 1 279 -95 callgsubr
            220 return
          </CharString>
          <CharString index="383">
            48 108 46 hstemhm
            183 87 -74 90 return
          </CharString>
          <CharString index="384">
            1 -85 17 rlinecurve
            33 33 18 40 40 vvcurveto
            return
          </CharString>
          <CharString index="385">
            -1 callsubr
            49 return
          </CharString>
          <CharString index="386">
            -52 35 -28 34 36 vvcurveto
            29 18 15 23 11 10 -4 -9 10 vhcurveto
            return
          </CharString>
          <CharString index="387">
            -107 callgsubr
            341 271 callgsubr
            return
          </CharString>
          <CharString index="388">
            92 callsubr
            -84 -58 -58 -72 -59 41 -57 73 -51 hvcurveto
            return
          </CharString>
          <CharString index="389">
            140 callsubr
            55 vlineto
            return
          </CharString>
          <CharString index="390">
            rlinecurve
            6 -32 rlineto
            return
          </CharString>
          <CharString index="391">
            hlineto
            hintmask 10000001
            17 114 -81 9 rlineto
            hintmask 00111001
            -19 -123 rlineto
            return
          </CharString>
          <CharString index="392">
            -14 -31 callgsubr
            hstem
            194 -31 callsubr
            vstem
            return
          </CharString>
          <CharString index="393">
            392 170 rmoveto
            41 29 21 25 20 19 -15 -28 -36 -30 return
          </CharString>
          <CharString index="394">
            114 -88 -21 41 -21 371 113 10 -87 callsubr
            return
          </CharString>
          <CharString index="395">
            -90 callgsubr
            -148 252 callgsubr
          </CharString>
          <CharString index="396">
            48 -31 22 -28 -31 vvcurveto
            -34 -26 -20 return
          </CharString>
          <CharString index="397">
            -311 hlineto
            -39 -82 -95 -32 -68 17 return
          </CharString>
          <CharString index="398">
            vvcurveto
            -83 callsubr
            return
          </CharString>
          <CharString index="399">
            -60 -134 vlineto
            -123 -54 -59 -66 return
          </CharString>
          <CharString index="400">
            rlinecurve
            60 callgsubr
            return
          </CharString>
          <CharString index="401">
            rlinecurve
            53 callsubr
            return
          </CharString>
          <CharString index="402">
            116 68 -87 callsubr
            return
          </CharString>
          <CharString index="403">
            78 callgsubr
            269 return
          </CharString>
          <CharString index="404">
            -61 54 -56 85 8 vhcurveto
            return
          </CharString>
          <CharString index="405">
            -39 vhcurveto
            28 84 rlineto
            return
          </CharString>
          <CharString index="406">
            15 307 callsubr
            return
          </CharString>
          <CharString index="407">
            hlineto
            1 51 rlineto
            return
          </CharString>
          <CharString index="408">
            -64 13 -64 -61 -87 hhcurveto
            -83 -109 53 150 -83 hvcurveto
            return
          </CharString>
          <CharString index="409">
            -83 76 168 callsubr
            return
          </CharString>
          <CharString index="410">
            14 156 109 115 -45 34 156 122 hstemhm
            return
          </CharString>
          <CharString index="411">
            64 callgsubr
            -749 -107 callgsubr
            return
          </CharString>
          <CharString index="412">
            54 -33 40 65 55 hhcurveto
            20 19 -8 -12 22 hvcurveto
            -37 vlineto
            return
          </CharString>
          <CharString index="413">
            vlineto
            -103 callgsubr
            endchar
          </CharString>
          <CharString index="414">
            rlinecurve
            -6 32 rlineto
            return
          </CharString>
          <CharString index="415">
            339 callgsubr
            55 hlineto
            return
          </CharString>
          <CharString index="416">
            -60 -9 -55 2 -46 11 rrcurveto
            41 42 21 47 47 vvcurveto
            return
          </CharString>
          <CharString index="417">
            -89 callgsubr
            -68 92 hstemhm
            347 113 103 114 return
          </CharString>
          <CharString index="418">
            138 vstem
            479 -92 callsubr
            return
          </CharString>
          <CharString index="419">
            112 -11 49 50 56 hhcurveto
            26 24 -11 -23 21 hvcurveto
            return
          </CharString>
          <CharString index="420">
            -120 134 -125 161 -10 vhcurveto
            -65 -38 vlineto
            return
          </CharString>
          <CharString index="421">
            rrcurveto
            99 22 48 50 64 vvcurveto
            -67 callsubr
            return
          </CharString>
          <CharString index="422">
            rcurveline
            -70 -1 -26 -43 29 -66 59 -55 60 -26 rlinecurve
            53 return
          </CharString>
          <CharString index="423">
            175 357 rmoveto
            97 71 rlineto
            return
          </CharString>
          <CharString index="424">
            -48 56 55 89 132 -21 rrcurveto
            return
          </CharString>
          <CharString index="425">
            -99 -77 hlineto
            226 callgsubr
            return
          </CharString>
          <CharString index="426">
            -218 -180 vlineto
            endchar
          </CharString>
          <CharString index="427">
            79 31 123 28 -87 callsubr
            40 124 return
          </CharString>
          <CharString index="428">
            -113 72 -73 65 77 vvcurveto
            60 44 31 44 18 return
          </CharString>
          <CharString index="429">
            199 121 41 -87 callsubr
            44 124 return
          </CharString>
          <CharString index="430">
            126 135 120 -1 122 -2 109 return
          </CharString>
          <CharString index="431">
            87 69 58 77 14 hvcurveto
            33 -19 36 -12 39 2 return
          </CharString>
          <CharString index="432">
            1 callgsubr
            15 return
          </CharString>
          <CharString index="433">
            -144 -71 -80 -89 -124 143 -100 139 return
          </CharString>
          <CharString index="434">
            -32 -28 -15 -33 -33 vvcurveto
            -49 32 -47 57 -27 vhcurveto
            return
          </CharString>
          <CharString index="435">
            40 -33 -49 27 -50 hhcurveto
            endchar
          </CharString>
          <CharString index="436">
            -43 -26 -30 -42 -50 vvcurveto
            return
          </CharString>
          <CharString index="437">
            117 95 67 103 hvcurveto
            return
          </CharString>
          <CharString index="438">
            103 114 66 135 return
          </CharString>
          <CharString index="439">
            299 callgsubr
            13 return
          </CharString>
          <CharString index="440">
            114 -109 return
          </CharString>
          <CharString index="441">
            vhcurveto
            21 60 rlineto
            return
          </CharString>
          <CharString index="442">
            57 28 rcurveline
            92 return
          </CharString>
          <CharString index="443">
            204 -166 return
          </CharString>
          <CharString index="444">
            124 106 140 -132 115 hintmask 11101000
            return
          </CharString>
          <CharString index="445">
            -20 64 101 hstemhm
            201 132 19 111 return
          </CharString>
          <CharString index="446">
            114 110 -88 108 -171 -1 hvcurveto
            return
          </CharString>
          <CharString index="447">
            rmoveto
            22 -67 72 -88 51 -36 60 28 rcurveline
            101 return
          </CharString>
          <CharString index="448">
            72 -81 83 -44 vhcurveto
            21 -11 21 -9 21 -7 return
          </CharString>
          <CharString index="449">
            194 callgsubr
            -43 27 -44 44 -37 hvcurveto
            return
          </CharString>
          <CharString index="450">
            178 callgsubr
            160 94 return
          </CharString>
          <CharString index="451">
            64 -41 62 -65 48 vhcurveto
            80 vlineto
            -43 32 rlineto
            return
          </CharString>
          <CharString index="452">
            -87 callsubr
            23 141 return
          </CharString>
          <CharString index="453">
            hhcurveto
            -46 -54 -17 -50 -46 hvcurveto
            return
          </CharString>
          <CharString index="454">
            -107 callgsubr
            55 return
          </CharString>
          <CharString index="455">
            84 -62 82 -79 39 vhcurveto
            60 return
          </CharString>
          <CharString index="456">
            119 callsubr
            -59 75 return
          </CharString>
          <CharString index="457">
            hstem
            153 86 vstem
            276 return
          </CharString>
          <CharString index="458">
            hvcurveto
            111 -95 callgsubr
            return
          </CharString>
          <CharString index="459">
            hlineto
            9 -218 rlineto
            return
          </CharString>
          <CharString index="460">
            475 226 rmoveto
            return
          </CharString>
          <CharString index="461">
            118 -21 126 return
          </CharString>
          <CharString index="462">
            rlineto
            207 vlineto
            return
          </CharString>
          <CharString index="463">
            90 -136 102 -62 89 -18 rrcurveto
            -83 vlineto
            return
          </CharString>
          <CharString index="464">
            -386 108 80 -21 194 114 return
          </CharString>
          <CharString index="465">
            568 21 rmoveto
            70 -44 65 -66 42 vhcurveto
            return
          </CharString>
          <CharString index="466">
            66 rlineto
            -603 -107 callgsubr
            return
          </CharString>
          <CharString index="467">
            hstem
            108 111 89 111 vstem
            75 return
          </CharString>
          <CharString index="468">
            109 18 -87 callsubr
            25 132 return
          </CharString>
          <CharString index="469">
            vvcurveto
            112 -307 rmoveto
            -220 149 return
          </CharString>
          <CharString index="470">
            212 callsubr
            hstemhm
            23 140 return
          </CharString>
          <CharString index="471">
            vlineto
            -23 -8 -24 -9 -19 -8 3 -35 rcurveline
            return
          </CharString>
          <CharString index="472">
            -35 -34 -19 -46 -52 vvcurveto
            -162 182 return
          </CharString>
          <CharString index="473">
            -152 -67 rlinecurve
            53 -133 135 52 return
          </CharString>
          <CharString index="474">
            500 vlineto
            -49 43 rlineto
            1 vlineto
            endchar
          </CharString>
          <CharString index="475">
            hstemhm
            82 146 return
          </CharString>
          <CharString index="476">
            42 -12 36 18 return
          </CharString>
        <CharString name=".notdef">
          -136 23 99 239 97 hstem
          47 90 239 89 vstem
          47 23 rmoveto
          418 435 -418 hlineto
          90 -97 rmoveto
          239 -239 -239 hlineto
          endchar
        </CharString>
        <CharString name="A">
          191 callgsubr
          hstem
          -20 746 -95 callsubr
          17 -424 70 callsubr
        </CharString>
        <CharString name="AE">
          298 0 91.5 -91.5 202 -20 76 27.5 88 94.5 190 -88 88 -55 55 hstemhm
          446 148 288 9 hintmask 1010010100000000
          306 658 rmoveto
          hintmask 1010001110000000
          -1 -51 66 -8 -274 -520 -20 -9 -50 -19 -25 -17 rlinecurve
          6 -34 rlineto
          272 hlineto
          1 51 -88 13 60 118 rlineto
          193 -107 hlineto
          -23 -11 -41 -16 -21 -14 6 -34 rcurveline
          515 2 hlineto
          9 -2 rlineto
          hintmask 0100010110000000
          8 54 6 89 -2 56 -84 6 rcurveline
          hintmask 1011010100000000
          -33 -108 -192 -11 rlineto
          204 vlineto
          220 -9 rlineto
          101 vlineto
          -220 -17 rlineto
          210 vlineto
          184 -10 rlineto
          hintmask 1010100100000000
          17 -97 rlineto
          84 hlineto
          hintmask 1010010100000000
          13 65 5 86 -2 39 rrcurveto
          -449 -400 rmoveto
          -154 hlineto
          154 300 rlineto
          endchar
        </CharString>
        <CharString name="Aacute">
          191 callgsubr
          hstem
          -20 746 -95 callsubr
          -144 6 -57 callgsubr
          204 -503 70 callsubr
        </CharString>
        <CharString name="Abreve">
          191 callgsubr
          457 84 hstem
          187 89 134 99 -95 callsubr
          7 191 83 callsubr
          -89 -610 70 callsubr
        </CharString>
        <CharString name="Acircumflex">
          191 callgsubr
          hstem
          -20 746 -95 callsubr
          -203 20 13 callgsubr
          276 -496 70 callsubr
        </CharString>
        <CharString name="Adieresis">
          191 callgsubr
          hstem
          -20 746 -95 callsubr
          -176 216 -101 callgsubr
          -37 -640 70 callsubr
        </CharString>
        <CharString name="Agrave">
          191 callgsubr
          hstem
          -20 746 -95 callsubr
          -146 216 70 callgsubr
          -74 -503 70 callsubr
        </CharString>
        <CharString name="Amacron">
          191 callgsubr
          484 89 hstem
          -20 746 -95 callsubr
          -251 124 30 callgsubr
          268 -548 70 callsubr
        </CharString>
        <CharString name="Aogonek">
          71 -274 84 -1 -21 212 56 126 76 hstemhm
          427 103 hintmask 01111000
          272 646 rmoveto
          12 -31 -221 -543 -30 -12 -29 -13 -24 -15 283 callsubr
          272 hlineto
          1 51 -92 13 44 118 335 callgsubr
          42 -108 -31 -13 -30 -13 -26 226 callsubr
          167 hlineto
          -98 -45 -52 -62 -58 vvcurveto
          hintmask 10111000
          297 callsubr
          hintmask 01111000
          123 62 rlineto
          hintmask 10111000
          188 callsubr
          51 52 43 74 42 vhcurveto
          69 hlineto
          1 51 -71 10 -252 621 rlineto
          17 -424 70 callsubr
        </CharString>
        <CharString name="Aring">
          191 callgsubr
          452 46 116 75 hstem
          229 60 116 60 -95 callsubr
          -52 28 -70 callgsubr
          73 -614 70 callsubr
        </CharString>
        <CharString name="Atilde">
          191 callgsubr
          525 106 hstem
          -20 746 -95 callsubr
          -227 40 -64 callsubr
          291 -500 70 callsubr
        </CharString>
        <CharString name="B">
          20 0 81 229 66 -66 356 -93 93 -78 78 78 callgsubr
          188 154 -129 161 hintmask 10100101
          41 658 rmoveto
          -1 -51 71 -9 rlineto
          -525 53 callgsubr
          329 hlineto
          197 79 89 93 78 -55 70 -104 19 hvcurveto
          hintmask 10100110
          88 17 39 70 61 vvcurveto
          84 -78 85 -174 vhcurveto
          hintmask 10100101
          -86 -135 -3 -5 -91 hvcurveto
          hintmask 11001110
          331 -70 rmoveto
          47 -11 32 -50 -46 vvcurveto
          -53 -40 -52 -102 vhcurveto
          -46 hlineto
          hintmask 10010101
          197 vlineto
          80 -496 rmoveto
          -80 8 rlineto
          hintmask 10100101
          225 82 vlineto
          84 47 -66 -60 hvcurveto
          hintmask 10010101
          -58 -42 -57 -91 8 vhcurveto
          endchar
        </CharString>
        <CharString name="C">
          -54 callsubr
          endchar
        </CharString>
        <CharString name="Cacute">
          -54 callsubr
          -330 616 -57 callgsubr
          endchar
        </CharString>
        <CharString name="Ccaron">
          -54 callsubr
          -442 763 -52 callsubr
        </CharString>
        <CharString name="Ccedilla">
          -66 -112 54 42 105 -80 -21 447 243 331 callgsubr
          172 110 hintmask 11001110
          546 143 rmoveto
          -165 -54 rlineto
          -142 -5 -73 116 145 vvcurveto
          90 28 102 70 53 vhcurveto
          57 50 -11 -19 44 hvcurveto
          hintmask 10110110
          24 -125 rlineto
          92 hlineto
          hintmask 10101110
          17 56 8 84 -3 40 rrcurveto
          28 -40 -66 35 -100 hhcurveto
          -227 -109 -180 -177 -148 74 -158 200 -27 hvcurveto
          -48 -57 -61 callsubr
          hintmask 11001110
          25 42 rlineto
          5 6 0 6 hhcurveto
          205 88 rlineto
          endchar
        </CharString>
        <CharString name="D">
          -12 callgsubr
          endchar
        </CharString>
        <CharString name="Dcaron">
          -12 callgsubr
          -197 752 -52 callsubr
        </CharString>
        <CharString name="Dcroat">
          -33 callsubr
        </CharString>
        <CharString name="E">
          -103 callsubr
          endchar
        </CharString>
        <CharString name="Eacute">
          -103 callsubr
          197 656 -57 callgsubr
          endchar
        </CharString>
        <CharString name="Ecaron">
          -103 callsubr
          85 803 -52 callsubr
        </CharString>
        <CharString name="Ecircumflex">
          -103 callsubr
          138 670 13 callgsubr
          endchar
        </CharString>
        <CharString name="Edieresis">
          -103 callsubr
          165 866 -101 callgsubr
          endchar
        </CharString>
        <CharString name="Edotaccent">
          -103 callsubr
          281 866 -56 callsubr
        </CharString>
        <CharString name="Egrave">
          -103 callsubr
          195 866 70 callgsubr
          endchar
        </CharString>
        <CharString name="Emacron">
          -31 0 89.5 -89.5 202 83.5 88 94.5 190 -84.5 84.5 -55.5 55.5 84 89 78 callgsubr
          hintmask 10101011
          26 32 rmoveto
          6 -32 rlineto
          523 hlineto
          hintmask 01101011
          8 54 6 89 -2 56 -84 6 rcurveline
          hintmask 10101011
          -33 -109 -187 -13 355 callsubr
          215 -9 rlineto
          101 vlineto
          -215 -17 rlineto
          215 vlineto
          180 -13 rlineto
          hintmask 10110011
          17 -99 rlineto
          84 hlineto
          hintmask 10101011
          13 65 5 86 -2 39 rrcurveto
          -1 hlineto
          -521 hlineto
          hintmask 10100111
          -1 -51 74 -9 rlineto
          -525 vlineto
          hintmask 10101011
          -30 -12 -30 -13 -25 -16 rrcurveto
          90 774 30 callgsubr
          endchar
        </CharString>
        <CharString name="Eogonek">
          -31 -275 84 -1 -21 213 89.5 196 88 94.5 190 -84.5 84.5 -55.5 55.5 78 callgsubr
          63 103 hintmask 0111010110000000
          26 32 rmoveto
          6 -32 rlineto
          446 hlineto
          -100 -45 -52 -62 -59 vvcurveto
          hintmask 1011010110000000
          297 callsubr
          hintmask 0111010110000000
          123 62 rlineto
          hintmask 1011010110000000
          188 callsubr
          51 53 44 75 42 vhcurveto
          -2 1 8 53 6 89 -2 56 rlinecurve
          -84 6 -33 -109 -187 -13 355 callsubr
          215 -9 rlineto
          101 vlineto
          -215 -17 rlineto
          215 vlineto
          180 -13 rlineto
          hintmask 0111100110000000
          17 -99 rlineto
          84 hlineto
          hintmask 0111010110000000
          13 65 5 86 -2 39 rrcurveto
          -1 hlineto
          -521 hlineto
          hintmask 0111001110000000
          -1 -51 74 -9 rlineto
          -525 vlineto
          hintmask 0111010110000000
          -30 -12 -30 -13 -25 -16 rrcurveto
          endchar
        </CharString>
        <CharString name="Eth">
          -33 callsubr
        </CharString>
        <CharString name="Euro">
          -15 -21 104 -104 290 -65 65 74 65 175 87 hstemhm
          85 151 hintmask 10111100
          588 123 rmoveto
          -145 -40 -102 7 -58 45 -27 69 rlinecurve
          224 hlineto
          37 42 -6 23 rlineto
          -272 hlineto
          -2 17 -1 17 18 vvcurveto
          7 0 8 1 7 vhcurveto
          284 hlineto
          37 42 -6 23 rlineto
          -307 hlineto
          15 75 36 63 52 37 51 5 50 -11 50 -26 13 -96 rcurveline
          73 hlineto
          12 38 11 56 6 59 rrcurveto
          40 -50 -69 22 -79 hhcurveto
          -184 -104 -123 -139 -32 hvcurveto
          -61 hlineto
          -38 -42 6 -23 rlineto
          83 hlineto
          -1 -11 0 -10 -11 vvcurveto
          -14 1 -14 1 -14 vhcurveto
          -78 hlineto
          -37 -42 6 -23 rlineto
          121 hlineto
          hintmask 01011100
          34 -123 100 -103 195 1 rrcurveto
          hintmask 10111100
          184 75 rlineto
          endchar
        </CharString>
        <CharString name="F">
          -49 0 51 -51 68 194 92 110 194 -84.5 84.5 -55.5 55.5 hstemhm
          108 152 hintmask 10101010
          27 32 rmoveto
          6 -32 rlineto
          346 300 callsubr
          hintmask 01101010
          -120 17 rlineto
          199 vlineto
          223 -10 rlineto
          105 vlineto
          -223 -16 rlineto
          234 vlineto
          180 -13 rlineto
          hintmask 10110010
          17 -103 rlineto
          84 hlineto
          hintmask 10101010
          13 65 5 90 -2 39 rrcurveto
          -1 hlineto
          -521 hlineto
          hintmask 01100110
          -1 -51 74 -9 rlineto
          -526 vlineto
          hintmask 10101010
          -29 -12 -28 -13 -24 -15 rrcurveto
          endchar
        </CharString>
        <CharString name="G">
          239 callsubr
          hstemhm
          11 155 291 140 hintmask 11011100
          -35 callsubr
          hintmask 11101100
          24 -112 rlineto
          91 hlineto
          hintmask 11011100
          118 callsubr
          endchar
        </CharString>
        <CharString name="Gbreve">
          239 callsubr
          37 84 hstemhm
          11 155 22 89 134 99 -53 140 hintmask 1101110010000000
          -35 callsubr
          hintmask 1110110010000000
          24 -112 rlineto
          91 hlineto
          hintmask 1101110010000000
          118 callsubr
          hintmask 1101111100000000
          400 557 83 callsubr
          endchar
        </CharString>
        <CharString name="Gcommaaccent">
          239 callsubr
          hstemhm
          11 155 144 108 39 140 hintmask 11011110
          -35 callsubr
          hintmask 11101110
          24 -112 rlineto
          91 hlineto
          hintmask 11011110
          118 callsubr
          274 -456 -84 callgsubr
        </CharString>
        <CharString name="H">
          155 0 370 -86 86 226 36 callsubr
          269 152 hintmask 10001110
          456 658 rmoveto
          hintmask 10010110
          -1 -51 rlineto
          hintmask 10100110
          77 -11 rlineto
          -226 -269 vlineto
          hintmask 10001110
          215 0 callsubr
          hintmask 10010110
          -1 -51 rlineto
          hintmask 10100110
          77 -11 rlineto
          -523 53 callgsubr
          322 hlineto
          1 51 -92 13 rlineto
          hintmask 01001110
          220 269 vlineto
          hintmask 10001110
          -211 53 callgsubr
          323 hlineto
          1 51 -93 13 rlineto
          521 vlineto
          31 12 29 13 25 16 -6 32 rcurveline
          endchar
        </CharString>
        <CharString name="I">
          -82 callsubr
          endchar
        </CharString>
        <CharString name="Iacute">
          -82 callsubr
          68 688 -57 callgsubr
          endchar
        </CharString>
        <CharString name="Icircumflex">
          -266 143 callgsubr
          -73 909 -313 36 callsubr
          hintmask 10000011
          354 hmoveto
          1 51 rlineto
          hintmask 01000011
          -92 13 rlineto
          521 0 callsubr
          hintmask 10000101
          -1 -51 rlineto
          hintmask 00101001
          77 246 callgsubr
          hintmask 10000011
          -54 callgsubr
          9 702 rmoveto
          147 110 154 -110 53 52 rlineto
          hintmask 00010001
          -151 155 rlineto
          -111 hlineto
          -148 -155 rlineto
          endchar
        </CharString>
        <CharString name="Idieresis">
          -82 callsubr
          36 898 -101 callgsubr
          endchar
        </CharString>
        <CharString name="Idotaccent">
          -82 callsubr
          152 898 -56 callsubr
        </CharString>
        <CharString name="Igrave">
          -82 callsubr
          66 898 70 callgsubr
          endchar
        </CharString>
        <CharString name="Imacron">
          -247 143 callgsubr
          523 62 -51 51 -32 32 68 89 hstemhm
          119 152 hintmask 10000111
          32 790 rmoveto
          6 -64 rlineto
          288 hlineto
          47 42 -5 47 rlineto
          -223 77 callsubr
          330 -790 rmoveto
          1 51 rlineto
          hintmask 01000111
          -92 13 rlineto
          521 0 callsubr
          hintmask 10001011
          -1 -51 rlineto
          hintmask 00110011
          77 246 callgsubr
          hintmask 10000111
          -54 callgsubr
          endchar
        </CharString>
        <CharString name="Iogonek">
          -266 -274 84 -1 -21 212 51 -51 73 523 62 -51 51 -32 32 hstemhm
          45 103 -37 152 hintmask 0101001010000000
          354 hmoveto
          hintmask 0110001010000000
          1 51 -92 13 rlineto
          521 0 callsubr
          hintmask 0101010010000000
          -1 -51 rlineto
          hintmask 0101100010000000
          77 -11 rlineto
          -523 53 callgsubr
          163 hlineto
          hintmask 1001001100000000
          -98 -45 -52 -62 -58 vvcurveto
          297 callsubr
          hintmask 0101001010000000
          123 62 rlineto
          hintmask 1001001100000000
          188 callsubr
          51 52 43 74 42 vhcurveto
          endchar
        </CharString>
        <CharString name="J">
          -262 594 64 -51 51 -32 32 hstemhm
          125 151 hintmask 00110000
          37 658 rmoveto
          hintmask 01010000
          -1 -51 rlineto
          hintmask 10010000
          89 -13 rlineto
          -454 vlineto
          -156 -59 -62 -84 -53 vhcurveto
          35 -55 rlineto
          146 58 113 81 176 vvcurveto
          hintmask 00110000
          455 vlineto
          31 13 30 13 25 16 -6 32 rcurveline
          endchar
        </CharString>
        <CharString name="K">
          71 0 51 -51 63 -63 73 534 51 -32 32 78 callgsubr
          hintmask 10001100
          26 32 rmoveto
          6 -32 rlineto
          314 300 callsubr
          hintmask 01001100
          -84 12 rlineto
          180 vlineto
          41 43 rlineto
          hintmask 10001100
          151 callgsubr
          hintmask 10010100
          -1 -51 66 -10 -221 -236 rlineto
          hintmask 10001100
          224 -79 callsubr
          -307 hlineto
          hintmask 00110100
          -1 -51 78 246 callgsubr
          hintmask 10001100
          -30 -12 -30 -13 -25 -16 rrcurveto
          endchar
        </CharString>
        <CharString name="Kcommaaccent">
          71 0 51 -51 63 -63 73 534 51 -32 32 78 callgsubr
          86 108 hintmask 10001110
          26 32 rmoveto
          6 -32 rlineto
          314 300 callsubr
          hintmask 01001110
          -84 12 rlineto
          180 vlineto
          41 43 rlineto
          hintmask 10001110
          151 callgsubr
          hintmask 10010110
          -1 -51 66 -10 -221 -236 rlineto
          hintmask 10001110
          224 -79 callsubr
          -307 hlineto
          hintmask 00110110
          -1 -51 78 246 callgsubr
          hintmask 10001110
          -30 -12 -30 -13 -25 -16 rrcurveto
          298 -172 -84 callgsubr
        </CharString>
        <CharString name="L">
          -52 0 92 504 36 callsubr
          -21 callgsubr
          endchar
        </CharString>
        <CharString name="Lacute">
          -52 0 92 504 36 callsubr
          -21 callgsubr
          -234 30 -57 callgsubr
          endchar
        </CharString>
        <CharString name="Lcaron">
          -52 0 92 504 36 callsubr
          206 114 hintmask 10011100
          35 658 rmoveto
          hintmask 10101100
          -1 -51 rlineto
          hintmask 11001100
          77 -11 rlineto
          -523 53 callgsubr
          543 hlineto
          1 hlineto
          11 61 4 102 -2 67 -87 8 rcurveline
          -39 -138 -200 -16 rlineto
          hintmask 10011100
          168 callgsubr
          98 9 22 callgsubr
        </CharString>
        <CharString name="Lcommaaccent">
          -52 0 92 504 36 callsubr
          1 108 -21 callgsubr
          hintmask 10010100
          -102 -798 -84 callgsubr
        </CharString>
        <CharString name="Lslash">
          -37 0 92 504 62 -51 51 -32 32 hstemhm
          129 152 hintmask 10011000
          28 271 rmoveto
          30 -61 71 36 rlineto
          -173 53 callgsubr
          543 hlineto
          1 hlineto
          11 61 4 102 -2 67 -87 8 rcurveline
          -39 -138 -200 -16 rlineto
          238 vlineto
          124 62 14 52 -17 24 -121 -61 rlineto
          186 0 callsubr
          hintmask 10101000
          -1 -51 rlineto
          hintmask 11001000
          77 -11 rlineto
          -274 vlineto
          endchar
        </CharString>
        <CharString name="M">
          306 0 47 -47 650 -636 -21 610 47 -32 32 hstemhm
          121 105.5 460 143 hintmask 01000110
          47 650 rmoveto
          hintmask 10010110
          -1 -47 82 -17 -14 -511 -32 -13 -31 -14 -26 226 callsubr
          276 hlineto
          1 47 -84 17 5 278 -16 166 rlineto
          hintmask 00101110
          186 -515 115 23 185 497 -14 -171 rlineto
          hintmask 10001110
          3 -269 -30 -12 -30 -13 -25 226 callsubr
          318 hlineto
          1 47 -94 19 -9 512 30 12 28 13 24 299 callsubr
          -233 hlineto
          -181 -494 rlineto
          hintmask 01000110
          -177 493 1 1 rlineto
          endchar
        </CharString>
        <CharString name="N">
          -74 callgsubr
          endchar
        </CharString>
        <CharString name="NULL">
          -348 endchar
        </CharString>
        <CharString name="Nacute">
          -74 callgsubr
          253 656 -57 callgsubr
          endchar
        </CharString>
        <CharString name="Ncaron">
          -74 callgsubr
          141 803 -52 callsubr
        </CharString>
        <CharString name="Ncommaaccent">
          126 143 callgsubr
          -65 -21 620 51 -32 32 hstemhm
          111 109 131 108 98 -6 callsubr
          300 -172 -84 callgsubr
        </CharString>
        <CharString name="Ntilde">
          126 143 callgsubr
          -65 -21 620 51 -32 32 125 106 hstemhm
          111 109 337 -6 callsubr
          170 690 -64 callsubr
          endchar
        </CharString>
        <CharString name="O">
          27 266 callgsubr
          -100 callsubr
          endchar
        </CharString>
        <CharString name="OE">
          306 -15 88 -73 92 -92 202 83.5 88 94.5 190 -88 88 -74 90 hstemhm
          35 155 268 152 hintmask 1001001110000000
          377 73 rmoveto
          -130 -57 127 133 98 31 96 55 44 hvcurveto
          9 27 30 4 30 hhcurveto
          32 34 -5 -12 29 hvcurveto
          -479 vlineto
          -10 -24 -29 -5 -28 hhcurveto
          hintmask 0101100110000000
          518 395 rmoveto
          hintmask 0101010110000000
          13 65 5 86 -2 39 rrcurveto
          -420 hlineto
          hintmask 1001001110000000
          11 -35 -38 5 -37 hhcurveto
          -168 -178 -111 -231 -242 170 -105 163 hvcurveto
          hintmask 0101010110000000
          38 38 4 11 36 hvcurveto
          427 hlineto
          hintmask 0011010110000000
          8 54 6 89 -2 56 -84 6 rcurveline
          hintmask 0101010110000000
          -33 -108 -192 -10 rlineto
          203 vlineto
          211 -9 rlineto
          101 vlineto
          -211 -17 rlineto
          210 vlineto
          184 -10 rlineto
          hintmask 0101100110000000
          17 -97 rlineto
          endchar
        </CharString>
        <CharString name="Oacute">
          27 266 callgsubr
          -100 callsubr
          -72 98 -57 callgsubr
          endchar
        </CharString>
        <CharString name="Ocircumflex">
          27 266 callgsubr
          -100 callsubr
          -131 112 13 callgsubr
          endchar
        </CharString>
        <CharString name="Odieresis">
          27 266 callgsubr
          -100 callsubr
          -104 308 -101 callgsubr
          endchar
        </CharString>
        <CharString name="Ograve">
          27 266 callgsubr
          -100 callsubr
          -74 308 70 callgsubr
          endchar
        </CharString>
        <CharString name="Ohungarumlaut">
          27 266 callgsubr
          -100 callsubr
          -83 121 146 callsubr
          177 callgsubr
        </CharString>
        <CharString name="Omacron">
          27 266 callgsubr
          64 89 -100 callsubr
          -179 216 30 callgsubr
          endchar
        </CharString>
        <CharString name="Oslash">
          55 -20 88 -47 -21 590 88 hstemhm
          14 160 326 161 hintmask 01111000
          177 -87 rmoveto
          47 87 rlineto
          hintmask 10111000
          -13 37 40 -7 41 hhcurveto
          164 155 111 229 124 -45 95 -69 61 hvcurveto
          54 100 -69 40 -52 -96 rlineto
          23 -44 -50 11 -52 hhcurveto
          -180 -140 -139 -214 hvcurveto
          hintmask 01111000
          -137 57 -97 82 -55 vhcurveto
          -46 -85 rlineto
          214 639 rmoveto
          44 35 -17 -28 27 hvcurveto
          -211 -391 rlineto
          -28 49 -14 67 73 vvcurveto
          107 31 89 43 37 vhcurveto
          9 25 25 5 23 hhcurveto
          hintmask 10111000
          38 -522 rmoveto
          -33 -28 9 15 -24 hvcurveto
          201 374 rlineto
          17 -44 8 -52 -53 vvcurveto
          -108 -34 -92 -50 -40 vhcurveto
          -5 -19 -17 -4 -21 hhcurveto
          endchar
        </CharString>
        <CharString name="Otilde">
          27 266 callgsubr
          105 106 -100 callsubr
          -155 132 -64 callsubr
          endchar
        </CharString>
        <CharString name="P">
          -16 0 51 -51 68 170 80 284.5 63.5 -8 -20 hstemhm
          108 152 200 157 hintmask 10101100
          35 658 rmoveto
          hintmask 01110100
          -1 -51 74 -9 rlineto
          -526 vlineto
          hintmask 10110100
          -29 -12 -28 -13 -24 -15 6 -32 rcurveline
          346 300 callsubr
          hintmask 01110110
          -120 17 rlineto
          169 vlineto
          107 1 rlineto
          155 95 97 339 callsubr
          -21 -348 rmoveto
          -17 -30 2 6 -30 hvcurveto
          247 vlineto
          139 15 rlineto
          41 -23 20 -60 -54 vvcurveto
          -68 -36 -65 -87 vhcurveto
          endchar
        </CharString>
        <CharString name="Q">
          65 266 callgsubr
          hstem
          14 160 326 161 vstem
          14 325 rmoveto
          -229 159 -116 169 12 13 1 1 12 vhcurveto
          297 -164 67 134 -250 63 rlineto
          97 49 71 101 155 vvcurveto
          229 -153 129 -174 -180 -140 -139 -214 vhcurveto
          307 265 rmoveto
          123 56 -134 -139 -108 -34 -92 -50 -40 hvcurveto
          -5 -19 -17 -4 -21 hhcurveto
          -124 -61 122 153 107 31 89 43 37 hvcurveto
          9 25 25 5 23 hhcurveto
          endchar
        </CharString>
        <CharString name="R">
          -78 callgsubr
          endchar
        </CharString>
        <CharString name="Racute">
          -78 callgsubr
          -127 22 -57 callgsubr
          endchar
        </CharString>
        <CharString name="Rcaron">
          -78 callgsubr
          -239 169 -52 callsubr
        </CharString>
        <CharString name="Rcommaaccent">
          44 0 55 199.5 76.5 271.5 63.5 -8 -20 78 callgsubr
          35 108 56 157 hintmask 11101110
          328 331 rmoveto
          -18 -23 2 5 -24 hvcurveto
          235 vlineto
          139 15 rlineto
          41 -28 19 -49 -51 vvcurveto
          -67 -32 -62 -102 vhcurveto
          hintmask 11011110
          -290 327 rmoveto
          hintmask 11101110
          -1 -51 74 -9 rlineto
          -525 53 callgsubr
          320 hlineto
          1 51 -90 13 rlineto
          190 vlineto
          83 1 136 -255 rlineto
          200 hlineto
          1 51 -64 8 -134 218 rlineto
          84 35 50 74 77 vvcurveto
          107 -95 96 -167 vhcurveto
          -84 -806 -84 callgsubr
        </CharString>
        <CharString name="S">
          209 callsubr
          190 -86 callsubr
          endchar
        </CharString>
        <CharString name="Sacute">
          209 callsubr
          190 -86 callsubr
          155 207 -57 callgsubr
          endchar
        </CharString>
        <CharString name="Scaron">
          209 callsubr
          190 -86 callsubr
          43 354 -52 callsubr
        </CharString>
        <CharString name="Scedilla">
          -70 -112 54 62 -21 616 79 hstemhm
          54 144 97 110 -17 151 hintmask 11111000
          54 481 rmoveto
          265 callgsubr
          hintmask 11110100
          84 -39 63 -28 -63 vvcurveto
          -30 -16 -35 -39 -19 vhcurveto
          -45 -51 7 22 -48 hvcurveto
          -49 140 rlineto
          -72 hlineto
          272 callsubr
          rrcurveto
          hintmask 11111000
          47 -32 74 -21 64 -8 -44 -52 rcurveline
          -61 callsubr
          23 38 rlineto
          hintmask 11110100
          127 4 109 73 124 vvcurveto
          119 -94 50 -92 43 vhcurveto
          -85 40 -70 27 58 vvcurveto
          28 15 34 31 19 vhcurveto
          48 1 48 -7 43 -22 29 -112 rcurveline
          80 hlineto
          13 60 4 76 47 vvcurveto
          18 -49 -79 18 -70 hhcurveto
          hintmask 11111000
          -144 -113 -76 -121 hvcurveto
          endchar
        </CharString>
        <CharString name="Scommaaccent">
          209 callsubr
          49 108 33 -86 callsubr
          168 -621 -84 callgsubr
        </CharString>
        <CharString name="T">
          -3 0 94 callsubr
          -53 callsubr
          endchar
        </CharString>
        <CharString name="Tcaron">
          -3 0 94 callsubr
          -53 callsubr
          -22 803 -52 callsubr
        </CharString>
        <CharString name="Thorn">
          -22 0 225 -77 77 218 79 94 34 hstemhm
          116 152 179 152 hintmask 10111000
          37 650 rmoveto
          -1 -51 80 -12 rlineto
          -511 vlineto
          -23 -10 -43 -17 -22 -15 6 -34 rcurveline
          325 hlineto
          hintmask 01111100
          1 51 -92 13 rlineto
          83 vlineto
          86 1 rlineto
          163 82 89 95 92 -78 98 -163 hvcurveto
          -90 53 hlineto
          23 10 40 17 22 14 -6 34 rcurveline
          hintmask 10111100
          -32 -425 rmoveto
          -18 -15 2 3 -14 hvcurveto
          195 vlineto
          114 18 rlineto
          44 -28 21 -41 -42 vvcurveto
          -57 -37 -50 -95 vhcurveto
          endchar
        </CharString>
        <CharString name="U">
          -97 callsubr
          endchar
        </CharString>
        <CharString name="Uacute">
          -97 callsubr
          -33 30 -57 callgsubr
          endchar
        </CharString>
        <CharString name="Ucircumflex">
          -97 callsubr
          -92 44 13 callgsubr
          endchar
        </CharString>
        <CharString name="Udieresis">
          -97 callsubr
          -65 240 -101 callgsubr
          endchar
        </CharString>
        <CharString name="Ugrave">
          -97 callsubr
          -35 240 70 callgsubr
          endchar
        </CharString>
        <CharString name="Uhungarumlaut">
          -97 callsubr
          -44 53 146 callsubr
          177 callgsubr
        </CharString>
        <CharString name="Umacron">
          89 -19 91 535 51 -32 32 84 89 hstemhm
          85 152 299 108 hintmask 10111100
          9 658 rmoveto
          hintmask 11011100
          -1 -51 77 -11 rlineto
          -301 vlineto
          -211 128 -103 171 151 109 81 229 vhcurveto
          hintmask 10111100
          -3 callsubr
          hintmask 11011100
          -1 -51 85 -12 rlineto
          -311 vlineto
          -92 -18 -65 -33 -31 vhcurveto
          -15 -24 -28 -9 -35 hhcurveto
          -97 -64 63 130 hvcurveto
          hintmask 10111100
          31 callsubr
          -140 148 30 callgsubr
          endchar
        </CharString>
        <CharString name="Uogonek">
          89 -274 84 -1 -21 193 91 535 51 -32 32 hstemhm
          85 152 21 103 175 108 hintmask 01101101
          9 658 rmoveto
          hintmask 01110101
          -1 -51 77 -11 rlineto
          -301 vlineto
          -206 122 -103 164 -5 vhcurveto
          hintmask 10101111
          -74 -42 -39 -53 -51 vvcurveto
          297 callsubr
          hintmask 01101101
          123 62 rlineto
          hintmask 10101111
          188 callsubr
          48 46 41 68 40 vhcurveto
          102 30 67 88 180 vvcurveto
          -3 callsubr
          hintmask 01110101
          -1 -51 85 -12 rlineto
          -311 vlineto
          -92 -18 -65 -33 -31 vhcurveto
          -15 -24 -28 -9 -35 hhcurveto
          -97 -64 63 130 hvcurveto
          hintmask 01101101
          31 callsubr
          endchar
        </CharString>
        <CharString name="Uring">
          89 -19 91 535 51 -32 32 52 46 116 75 hstemhm
          85 152 15 60 116 60 48 108 hintmask 1011110110000000
          9 658 rmoveto
          hintmask 1101110110000000
          -1 -51 77 -11 rlineto
          -301 vlineto
          -211 128 -103 171 151 109 81 229 vhcurveto
          hintmask 1011110110000000
          -3 callsubr
          hintmask 1101110110000000
          -1 -51 85 -12 rlineto
          -311 vlineto
          -92 -18 -65 -33 -31 vhcurveto
          -15 -24 -28 -9 -35 hhcurveto
          -97 -64 63 130 hvcurveto
          hintmask 1011110110000000
          31 callsubr
          hintmask 1011111110000000
          59 52 -70 callgsubr
          endchar
        </CharString>
        <CharString name="V">
          61 7 -21 621 51 -32 32 hstemhm
          -2 713 hintmask 10110000
          428 hmoveto
          205 588 28 11 27 13 23 14 307 callsubr
          -261 hlineto
          hintmask 11010000
          -1 -51 89 -13 -166 -492 rlineto
          -7 hlineto
          -12 130 rlineto
          hintmask 10110000
          -115 353 30 12 28 14 25 299 callsubr
          -310 hlineto
          hintmask 11010000
          -1 -51 75 -11 214 -610 rlineto
          hintmask 10110000
          49 2 52 5 40 7 rrcurveto
          endchar
        </CharString>
        <CharString name="W">
          336 -14 116 -95 -21 616 56 -32 32 hstemhm
          2 984 hintmask 01101000
          742 -1 rmoveto
          hintmask 01011000
          168 589 28 12 25 12 23 14 rlinecurve
          hintmask 10101000
          -6 32 rlineto
          -267 hlineto
          -1 -51 97 -14 -134 -491 rlineto
          -2 hlineto
          -11 142 -109 408 -145 -33 41 -136 -110 -381 rlineto
          -5 hlineto
          -8 133 rlineto
          hintmask 01011000
          -95 351 29 12 29 13 24 15 rlinecurve
          hintmask 01101000
          -6 32 rlineto
          -304 hlineto
          -1 -51 71 -10 188 -611 52 1 47 4 42 8 rlinecurve
          69 223 22 116 107 -352 52 1 48 4 42 8 rlinecurve
          endchar
        </CharString>
        <CharString name="X">
          51 0 55.5 551.5 51 -32 32 hstemhm
          2 702 hintmask 10110000
          415 658 rmoveto
          hintmask 11010000
          -1 -51 75 -11 -104 -170 rlineto
          hintmask 10110000
          -117 172 19 9 18 9 16 10 307 callsubr
          -282 hlineto
          hintmask 11010000
          -1 -51 66 -10 173 -257 -186 -267 -29 -13 -29 -13 -25 -15 283 callsubr
          273 hlineto
          1 51 -83 12 127 195 132 -195 -22 -9 -21 -11 -18 -11 283 callsubr
          300 hlineto
          1 51 -71 9 -197 290 rlineto
          hintmask 10110000
          156 237 29 11 27 13 24 299 callsubr
          endchar
        </CharString>
        <CharString name="Y">
          -72 callgsubr
          endchar
        </CharString>
        <CharString name="Yacute">
          -72 callgsubr
          -17 30 -57 callgsubr
          endchar
        </CharString>
        <CharString name="Ydieresis">
          -72 callgsubr
          -49 240 -101 callgsubr
          endchar
        </CharString>
        <CharString name="Z">
          -72 callsubr
          endchar
        </CharString>
        <CharString name="Zacute">
          -72 callsubr
          161 689 -57 callgsubr
          endchar
        </CharString>
        <CharString name="Zcaron">
          -72 callsubr
          48 836 -52 callsubr
        </CharString>
        <CharString name="Zdotaccent">
          -72 callsubr
          245 899 -56 callsubr
        </CharString>
        <CharString name="a">
          -12 callsubr
          hstem
          37 145 124 146 vstem
          -104 callgsubr
          endchar
        </CharString>
        <CharString name="aacute">
          -12 callsubr
          hstem
          37 145 124 146 vstem
          -104 callgsubr
          208 611 -57 callsubr
        </CharString>
        <CharString name="abreve">
          -12 callsubr
          48 85 hstemhm
          37 145 -82 87 119 146 -129 99 hintmask 11111010
          -104 callgsubr
          hintmask 11110101
          120 640 23 callgsubr
        </CharString>
        <CharString name="acircumflex">
          -12 callsubr
          hstem
          37 145 124 146 vstem
          -104 callgsubr
          -64 454 -11 callsubr
        </CharString>
        <CharString name="acute">
          -354 533 238 hstem
          22 246 vstem
          268 688 -57 callsubr
        </CharString>
        <CharString name="acutecomb">
          533 238 hstem
          -94 246 vstem
          152 688 -57 callsubr
        </CharString>
        <CharString name="acutecomb.case">
          688 210 hstem
          -130 295 vstem
          -87 688 -57 callgsubr
          endchar
        </CharString>
        <CharString name="adieresis">
          -12 callsubr
          hstem
          37 145 124 146 vstem
          -104 callgsubr
          -64 642 -101 callgsubr
          endchar
        </CharString>
        <CharString name="ae">
          130 -13 98 -77 -21 184 56.5 12 75 103.5 79 -77 76 hstemhm
          37 145 124 138 hintmask 01010111
          78 297 rmoveto
          88 -1 rlineto
          hintmask 01111011
          18 108 18 7 32 6 25 1 rlinecurve
          29 -15 18 -25 -62 vvcurveto
          1 -86 -192 -5 rlineto
          -55 -29 -23 -45 -40 vvcurveto
          -65 60 -75 116 16 vhcurveto
          153 82 50 -59 81 -32 95 9 rlinecurve
          hintmask 10010111
          157 81 -21 53 rlineto
          -23 -47 -38 -13 -45 hhcurveto
          -82 -67 44 112 -5 hvcurveto
          254 -3 57 57 5 1 rlineto
          135 1 -105 65 -101 hhcurveto
          -55 -52 -20 -34 -40 hvcurveto
          -24 29 -32 25 -34 1 rrcurveto
          -65 -115 -29 -34 -77 hvcurveto
          hintmask 01010111
          -3 -46 6 -49 14 -42 rrcurveto
          hintmask 01110111
          125 -223 rmoveto
          -14 11 -7 18 15 vvcurveto
          50 70 7 58 -4 vhcurveto
          5 hlineto
          4 -22 8 -20 10 -19 -38 -14 -61 -21 -35 -1 rrcurveto
          317 346 rmoveto
          hintmask 01010111
          55 42 -45 -56 9 hvcurveto
          -177 -9 rlineto
          hintmask 01110111
          10 47 23 41 38 22 rrcurveto
          endchar
        </CharString>
        <CharString name="agrave">
          -12 callsubr
          hstem
          37 145 124 146 vstem
          -104 callgsubr
          151 516 26 callsubr
        </CharString>
        <CharString name="amacron">
          -12 callsubr
          63 89 hstem
          37 145 124 146 vstem
          -104 callgsubr
          -109 552 -20 callgsubr
        </CharString>
        <CharString name="ampersand">
          41 -27 85 305 105 110 90 0 -20 hstemhm
          16 138 -117 136 298 124 hintmask 11011010
          379 294 rmoveto
          22 15 20 11 19 10 rrcurveto
          20 -35 11 -41 -40 vvcurveto
          -52 -19 -50 -44 -32 vhcurveto
          -16 -32 -40 -6 -29 hhcurveto
          -80 -73 41 78 66 52 54 93 -1 hvcurveto
          14 66 rlineto
          hintmask 11100110
          -105 34 rlineto
          -24 23 -11 30 29 vvcurveto
          42 25 41 39 17 vhcurveto
          186 -72 45 120 rlineto
          29 -68 -73 13 -60 hhcurveto
          -153 -77 -86 -84 -52 29 -51 59 -30 hvcurveto
          hintmask 11011010
          -63 -28 -46 -57 -80 vvcurveto
          -136 130 -91 164 180 105 111 139 46 -11 48 -24 46 vhcurveto
          49 -1 37 -22 39 -24 36 113 rcurveline
          -81 71 -103 -27 -193 -116 rrcurveto
          endchar
        </CharString>
        <CharString name="aogonek">
          -104 -250 84 337 56.5 193.5 78 hstemhm
          37 145 75 103 -54 146 hintmask 01010100
          37 111 rmoveto
          -65 60 -75 116 16 vhcurveto
          109 69 11 -22 16 -18 18 -13 rlinecurve
          hintmask 11011000
          -73 -42 -37 -53 -50 89 callsubr
          45 42 39 62 39 vhcurveto
          hintmask 01110100
          71 37 227 callsubr
          -15 -3 -15 hhcurveto
          -16 -9 9 14 hvcurveto
          214 vlineto
          63 -3 24 -9 16 vhcurveto
          41 -28 -51 31 -51 hhcurveto
          -51 -122 -28 -33 -76 hvcurveto
          -3 -47 8 -53 16 -41 84 3 rcurveline
          18 108 18 6 32 6 25 1 rlinecurve
          29 -14 18 -26 -62 vvcurveto
          -89 vlineto
          -191 -5 rlineto
          hintmask 01010100
          -55 -29 -23 -45 -40 vvcurveto
          166 -37 rmoveto
          -14 11 -7 18 15 vvcurveto
          49 67 8 57 -4 vhcurveto
          -72 vlineto
          -29 -11 -39 -13 -35 -1 rrcurveto
          endchar
        </CharString>
        <CharString name="approxequal">
          -85 144 106 80 106 hstem
          57 455 vstem
          104 269 -64 callsubr
          47 -222 -64 callsubr
          endchar
        </CharString>
        <CharString name="aring">
          -12 callsubr
          29 46 116 75 hstemhm
          37 145 -41 60 105 146 -135 60 hintmask 1111110100000000
          -104 callgsubr
          hintmask 1101101010000000
          60 454 -70 callgsubr
          endchar
        </CharString>
        <CharString name="asciicircum">
          -137 558 91 hstem
          24 469 vstem
          24 369 rmoveto
          73 -47 156 236 rlineto
          7 hlineto
          163 -232 70 47 -198 276 rlineto
          -81 hlineto
          endchar
        </CharString>
        <CharString name="asciitilde">
          -45 252 106 hstem
          77 455 vstem
          124 191 -64 callsubr
          endchar
        </CharString>
        <CharString name="asterisk">
          -246 679 -20 hstem
          226.5 125 vstem
          51 679 rmoveto
          86 -88 33 37 -58 140 rlineto
          114 -18 rmoveto
          -59 -109 46 -21 116 97 rlineto
          22 -112 rmoveto
          -122 21 -5 -49 128 -79 rlineto
          -100 -55 rmoveto
          -17 123 -49 -10 -37 -147 rlineto
          -82 82 rmoveto
          113 55 -26 43 -150 -9 rlineto
          endchar
        </CharString>
        <CharString name="at">
          419 -16 98 89 56 190 78 109 105 hstem
          67 144 109 145 125 145 132 142 vstem
          467 404 rmoveto
          18 7 31 5 26 1 rrcurveto
          28 -14 20 -25 -63 vvcurveto
          -86 vlineto
          -192 -4 rlineto
          -55 -29 -23 -46 -40 vvcurveto
          -64 60 -75 116 16 vhcurveto
          109 68 21 -41 41 -33 68 3 rlinecurve
          180 27 94 146 154 vvcurveto
          192 -147 206 -314 -306 -175 -195 -216 -115 50 -121 104 -101 vhcurveto
          81 51 rlineto
          -61 83 -30 93 87 vvcurveto
          177 125 152 218 208 105 -139 -159 -82 -27 -86 -50 -40 vhcurveto
          -23 -18 -32 -11 43 vvcurveto
          209 vlineto
          63 -3 23 -9 17 vhcurveto
          37 -24 -56 34 -51 hhcurveto
          -52 -120 -28 -33 -76 hvcurveto
          -3 -47 8 -46 16 -48 84 3 rcurveline
          37 -222 rmoveto
          -14 11 -7 17 16 vvcurveto
          48 68 8 57 -3 vhcurveto
          -73 vlineto
          -29 -10 -40 -13 -35 -1 rrcurveto
          endchar
        </CharString>
        <CharString name="atilde">
          -12 callsubr
          125 103 hstem
          37 145 124 146 vstem
          -104 callgsubr
          -97 474 -33 callgsubr
        </CharString>
        <CharString name="b">
          -93 -19 86 316 108 hstem
          59 145 181 151 vstem
          155 736 rmoveto
          -60 -2 -65 -13 -52 -20 7 -48 rcurveline
          74 -8 rlineto
          -623 46 callsubr
        </CharString>
        <CharString name="backslash">
          -245 -126 849 hstem
          -18 414 vstem
          396 -86 rmoveto
          -308 809 -106 -42 306 -807 rlineto
          endchar
        </CharString>
        <CharString name="bar">
          -335 -204 -21 hstem
          100 111.5 vstem
          212 -225 rmoveto
          -1 960 rlineto
          -111 -960 hlineto
          endchar
        </CharString>
        <CharString name="braceleft">
          -156 -145 103 674 97 hstem
          152 151 vstem
          405 -48 rmoveto
          -106 12 8 185 3 53 -19 48 -38 45 rlinecurve
          9 vlineto
          38 44 19 50 -3 51 -8 183 rcurveline
          109 hlineto
          -6 97 rlineto
          -177 -14 -73 -87 -79 vvcurveto
          -106 vlineto
          -69 -7 -41 -74 -6 vhcurveto
          -6 -59 rlineto
          82 -6 5 -39 -81 vvcurveto
          -120 vlineto
          -70 87 -87 156 -10 vhcurveto
          endchar
        </CharString>
        <CharString name="braceright">
          -152 -145 103 674 97 hstem
          190 151 vstem
          341 22 rmoveto
          120 vlineto
          81 5 39 82 6 vhcurveto
          -6 59 rlineto
          -74 6 -7 41 69 vvcurveto
          106 vlineto
          79 -73 87 -177 14 vhcurveto
          -6 -97 rlineto
          109 hlineto
          -8 -183 -3 -51 19 -50 38 -44 rlinecurve
          -9 vlineto
          -38 -45 -19 -48 3 -53 8 -185 rcurveline
          -106 -12 10 -97 rlineto
          156 10 87 87 70 vvcurveto
          endchar
        </CharString>
        <CharString name="bracketleft">
          -255 -122 60 714 60 hstem
          91 142 vstem
          91 712 rmoveto
          -834 266 vlineto
          6 60 -130 30 rlineto
          654 vlineto
          130 30 -6 60 rlineto
          endchar
        </CharString>
        <CharString name="bracketright">
          -253 -122 90 684 60 hstem
          160 142 vstem
          30 652 rmoveto
          130 -30 rlineto
          -654 vlineto
          -130 -30 6 -60 rlineto
          266 834 -266 hlineto
          endchar
        </CharString>
        <CharString name="breve">
          -274 550 85 hstem
          32 87 136 99 vstem
          255 717 23 callgsubr
        </CharString>
        <CharString name="brokenbar">
          -335 -76 258 176 258 hstem
          100 111 vstem
          211 358 rmoveto
          258 -111 -258 vlineto
          111 -434 rmoveto
          258 -111 -258 vlineto
          endchar
        </CharString>
        <CharString name="bullet">
          -233 109 298 hstem
          67 281 vstem
          198 407 rmoveto
          -69 -36 -48 -57 -14 -79 30 -63 53 -42 72 -21 66 33 42 50 18 66 -24 70 -55 51 -71 28 rrcurveto
          endchar
        </CharString>
        <CharString name="bulletoperator">
          -394 172 168 hstem
          30 169 vstem
          199 266 26 callgsubr
        </CharString>
        <CharString name="c">
          -41 callgsubr
          endchar
        </CharString>
        <CharString name="cacute">
          -41 callgsubr
          -26 624 -57 callsubr
        </CharString>
        <CharString name="caron">
          -215 541 223 hstem
          30 380 vstem
          30 692 -46 callsubr
        </CharString>
        <CharString name="ccaron">
          -41 callgsubr
          -376 628 -46 callsubr
        </CharString>
        <CharString name="ccedilla">
          -201 -112 54 42 100 -73 -21 424 82 0 -20 hstemhm
          14 142 100 110 hintmask 11010110
          411 111 rmoveto
          -18 -38 -37 -9 -33 hhcurveto
          -95 -52 75 103 51 14 58 39 43 hvcurveto
          46 -15 42 -37 36 -49 109 75 rcurveline
          72 -32 -72 36 -79 hhcurveto
          -139 -106 -104 -155 hvcurveto
          hintmask 10101110
          -130 78 -94 112 -23 vhcurveto
          -49 -59 -61 callsubr
          hintmask 11001110
          25 42 8 1 8 0 8 1 rlinecurve
          142 75 rlineto
          endchar
        </CharString>
        <CharString name="cedilla">
          -374 -112 118 hstem
          134 110 vstem
          157 6 rmoveto
          -61 hlineto
          -63 -75 -61 callsubr
          endchar
        </CharString>
        <CharString name="cent">
          -193 -116 216 380 -20 21 -20 hstemhm
          14 142 58 86 hintmask 10111000
          214 -116 rmoveto
          86 130 hlineto
          132 65 -21 46 rlineto
          -16 -38 -37 -9 -33 hhcurveto
          -95 -52 70 96 47 14 54 39 40 hvcurveto
          46 -14 42 -34 36 -46 109 70 rcurveline
          -26 55 -54 33 -62 10 rrcurveto
          120 -86 vlineto
          hintmask 11011000
          -121 vlineto
          -116 -18 -84 -91 -128 vvcurveto
          -125 83 -89 117 -18 vhcurveto
          endchar
        </CharString>
        <CharString name="circumflex">
          -233 531 203 hstem
          27 364 vstem
          85 531 -11 callsubr
        </CharString>
        <CharString name="colon">
          -297 1 -21 hstem
          82 173 vstem
          163 163 rmoveto
          -44 -23 -30 -34 -7 -49 152 callgsubr
          rrcurveto
          308 vmoveto
          199 callsubr
          endchar
        </CharString>
        <CharString name="comma">
          -361 -143 304 hstemhm
          46 184 -115 115 hintmask 11000000
          84 -143 150 callsubr
        </CharString>
        <CharString name="copyright">
          152 -23 73 85 89 239 66 88 72 hstem
          43 73 94 112 362 72 vstem
          756 331 rmoveto
          200 -161 158 -197 -197 -158 -157 -200 -202 160 -153 197 200 156 158 196 vhcurveto
          -640 -1 rmoveto
          161 128 126 156 157 127 -127 -157 -156 -125 -127 -161 -158 -124 121 159 vhcurveto
          427 -86 rmoveto
          -14 -34 -27 -6 -29 hhcurveto
          -86 -45 56 66 40 16 46 33 31 hvcurveto
          50 -14 31 -29 26 -45 93 57 rcurveline
          73 -37 -58 24 -64 hhcurveto
          -121 -81 -87 -112 -119 92 -82 128 6 hvcurveto
          130 64 rlineto
          endchar
        </CharString>
        <CharString name="currency">
          -138 165 81 217 82 hstem
          73 91 179 91 vstem
          254 165 rmoveto
          33 33 9 18 28 hvcurveto
          60 -65 48 47 -59 64 rlineto
          23 31 14 40 49 vvcurveto
          47 -13 39 -20 30 vhcurveto
          57 65 -52 43 -53 -63 rlineto
          17 -28 -33 9 -34 hhcurveto
          -34 -33 -10 -17 -30 hvcurveto
          -58 65 -51 -45 59 -66 rlineto
          -24 -30 -14 -39 -46 vvcurveto
          -48 15 -42 25 -34 vhcurveto
          -55 -63 50 -45 54 65 rlineto
          -16 26 32 -9 34 hhcurveto
          16 81 rmoveto
          -75 -31 59 57 40 16 39 22 18 hvcurveto
          3 13 10 1 11 hhcurveto
          81 26 -61 -54 -44 -18 -42 -19 -12 hvcurveto
          -3 -13 -13 -1 -10 hhcurveto
          endchar
        </CharString>
        <CharString name="d">
          273 callsubr
          hintmask 11011000
          156 callsubr
          hintmask 10111000
          -158 vlineto
          hintmask 11011000
          49 callgsubr
          rlineto
          -292 48 87 callgsubr
          endchar
        </CharString>
        <CharString name="dagger">
          -93 -180 867 -303 85 hstemhm
          195 152 -138 120.5 hintmask 01100000
          192 649 rmoveto
          6 -180 rlineto
          -113 hlineto
          -43 -52 6 -33 rlineto
          hintmask 01010000
          152 hlineto
          hintmask 10010000
          18 -564 rlineto
          101 hlineto
          hintmask 01010000
          21 564 rlineto
          130 hlineto
          43 52 -6 33 rlineto
          hintmask 01100000
          -164 hlineto
          hintmask 10100000
          8 216 -121 4 rlineto
          endchar
        </CharString>
        <CharString name="daggerdbl">
          -87 130 84 170 85 hstemhm
          201 152 -144 134 -124 111.5 hintmask 11100000
          198 649 rmoveto
          6 -180 rlineto
          -114 hlineto
          -43 -52 6 -33 rlineto
          hintmask 11010000
          153 hlineto
          6 -170 rlineto
          -127 hlineto
          -43 -51 6 -33 rlineto
          hintmask 11001000
          166 hlineto
          10 -310 rlineto
          101 hlineto
          11 310 rlineto
          134 hlineto
          43 51 -6 33 rlineto
          hintmask 11010000
          -167 hlineto
          6 170 rlineto
          129 hlineto
          43 52 -6 33 rlineto
          hintmask 11100000
          -163 hlineto
          8 216 -121 4 rlineto
          endchar
        </CharString>
        <CharString name="dcaron">
          273 callsubr
          111 114 hintmask 11011100
          156 callsubr
          hintmask 10111100
          -158 vlineto
          hintmask 11011100
          49 callgsubr
          rlineto
          -292 48 87 callgsubr
          289 619 22 callgsubr
        </CharString>
        <CharString name="dcroat">
          -62 -16 112 315 84 -8 -20 70 66 hstemhm
          14 152 174 145 hintmask 11011100
          581 570 rmoveto
          -6 33 rlineto
          -90 88 hlineto
          -49 45 238 callgsubr
          -42 -78 vlineto
          -43 -33 6 -33 rlineto
          115 hlineto
          hintmask 10111100
          -50 vlineto
          hintmask 11011100
          49 callgsubr
          227 callsubr
          -16 -3 -15 hhcurveto
          -15 -10 9 14 hvcurveto
          427 53 vlineto
          -261 -441 87 callgsubr
          endchar
        </CharString>
        <CharString name="degree">
          -284 377 67 137 69 hstem
          30 77 118 79 vstem
          174 444 rmoveto
          -44 -23 37 37 20 7 20 12 16 hvcurveto
          5 12 11 2 10 hhcurveto
          42 24 -38 -38 -21 -7 -21 -15 -15 hvcurveto
          -3 -10 -10 -1 -9 hhcurveto
          -5 -67 rmoveto
          79 56 53 83 77 -60 60 -79 -76 -59 -60 -77 -82 65 -54 74 hvcurveto
          endchar
        </CharString>
        <CharString name="dieresis">
          -179 550 169 hstem
          40 389 vstem
          114 719 -101 callgsubr
          endchar
        </CharString>
        <CharString name="divide">
          -50 0 -21 225 88 hstem
          56 486 vstem
          56 292 rmoveto
          -88 486 88 vlineto
          -246 -144 rmoveto
          -19 -11 -48 -30 -7 -56 10 -18 23 -40 55 -14 48 23 17 43 6 18 -6 19 -19 41 -60 25 rrcurveto
          366 vmoveto
          -19 -11 -48 -30 -7 -56 10 -17 23 -40 55 -14 48 23 17 42 6 19 -6 19 -19 41 -60 24 rrcurveto
          endchar
        </CharString>
        <CharString name="dollar">
          -72 -145 206 -58 -21 25 -21 613 186 -111 -20 22 -20 hstemhm
          54 144 56 103 31 151 hintmask 1000010100000000
          357 -145 rmoveto
          hintmask 0011001110000000
          131 vlineto
          102 21 80 68 106 vvcurveto
          119 -94 50 -92 43 vhcurveto
          -85 40 -70 27 58 vvcurveto
          28 15 34 31 19 vhcurveto
          48 1 48 -7 43 -22 29 -112 rcurveline
          80 hlineto
          hintmask 0010010110000000
          13 60 4 76 47 vvcurveto
          -39 14 -57 14 -57 6 rrcurveto
          hintmask 0011000100000000
          109 -102 vlineto
          hintmask 1000101110000000
          -111 vlineto
          -116 -18 -84 -71 -104 vvcurveto
          265 callgsubr
          84 -39 63 -28 -63 vvcurveto
          -30 -16 -35 -39 -19 vhcurveto
          -45 -51 7 22 -48 hvcurveto
          -49 140 rlineto
          -72 hlineto
          hintmask 0100011100000000
          272 callsubr
          51 -34 82 -22 68 -6 rrcurveto
          hintmask 1000010100000000
          -127 vlineto
          endchar
        </CharString>
        <CharString name="dotaccent">
          -429 550 169 hstem
          30 159 vstem
          104 719 -56 callsubr
        </CharString>
        <CharString name="dotbelowcomb">
          122 callsubr
        </CharString>
        <CharString name="dotbelowcomb.case">
          122 callsubr
        </CharString>
        <CharString name="dotlessi">
          -59 callgsubr
          endchar
        </CharString>
        <CharString name="dvKSPLa">
          1452 167 callgsubr
          328 138 166 140 153 139 359 135 hintmask 1010000111111110
          269 callsubr
          14 12 -5 -8 9 hvcurveto
          -9 -25 127 callsubr
          -24 callgsubr
          307 hlineto
          -62 54 80 -45 72 hhcurveto
          27 27 6 13 25 hvcurveto
          43 -60 72 -62 104 282 callgsubr
          17 -5 -11 18 vhcurveto
          -14 -31 -9 -38 -1 -43 99 -66 rcurveline
          33 19 3 102 42 73 65 22 rlinecurve
          -336 vlineto
          -99 callgsubr
          hintmask 1010001011111110
          99 callsubr
          -2130 -32 callgsubr
          hintmask 1010010111111110
          -102 callgsubr
          hintmask 1010000111111110
          758 296 207 callgsubr
          226 293 callgsubr
          -173 19 callgsubr
          hintmask 0100101011111110
          375 -128 rmoveto
          125 callsubr
          711 -100 hlineto
          -68 2 -70 -25 -47 -53 302 callsubr
          -8 0 -8 1 -8 hvcurveto
          -18 -26 -31 -10 -28 hhcurveto
          hintmask 1001001011111110
          -732 194 rmoveto
          -44 callgsubr
          388 hlineto
          hintmask 1010000111111110
          74 callsubr
          -82 hlineto
          hintmask 1001001011111110
          329 callgsubr
        </CharString>
        <CharString name="dvKSPLa.MAR">
          1476 167 callgsubr
          357 138 156 140 155 139 280 135 15 116 hintmask 1010000111111110
          269 callsubr
          23 18 -15 -14 9 hvcurveto
          6 -7 -1 -2 127 callsubr
          -24 callgsubr
          297 hlineto
          -62 54 80 -45 72 hhcurveto
          28 27 7 13 26 hvcurveto
          43 -61 71 -62 105 282 callgsubr
          19 -6 -12 19 vhcurveto
          -13 -31 -8 -37 -1 -42 99 -66 rcurveline
          33 19 rlineto
          hintmask 1010000111111111
          174 callsubr
          hintmask 1010001011111110
          257 callgsubr
          -2155 -32 callgsubr
          hintmask 1010010111111110
          -102 callgsubr
          hintmask 1010000111111110
          787 296 207 callgsubr
          216 293 callgsubr
          -163 19 callgsubr
          hintmask 0100101011111110
          365 -128 rmoveto
          125 callsubr
          634 -106 hlineto
          -40 -12 -37 -24 -28 -35 -84 77 168 callsubr
          -8 0 -7 1 -8 hvcurveto
          -19 -27 -31 -10 -29 hhcurveto
          hintmask 1001001011111110
          -751 194 rmoveto
          -44 callgsubr
          417 hlineto
          hintmask 1010000111111110
          74 callsubr
          -111 hlineto
          hintmask 1001001011111110
          329 callgsubr
        </CharString>
        <CharString name="e">
          -98 callsubr
          endchar
        </CharString>
        <CharString name="eacute">
          -98 callsubr
          -48 617 -57 callsubr
        </CharString>
        <CharString name="ecaron">
          -98 callsubr
          -398 621 -46 callsubr
        </CharString>
        <CharString name="ecircumflex">
          -98 callsubr
          -320 460 -11 callsubr
        </CharString>
        <CharString name="edieresis">
          -98 callsubr
          -320 648 -101 callgsubr
          endchar
        </CharString>
        <CharString name="edotaccent">
          -98 callsubr
          -204 648 -56 callsubr
        </CharString>
        <CharString name="egrave">
          -98 callsubr
          -105 522 26 callsubr
        </CharString>
        <CharString name="eight">
          -100 -21 73 542 74 hstemhm
          38 142 -123 132 177 121 -113 136 hintmask 11011000
          487 507 rmoveto
          86 -77 75 -133 -140 -80 -84 -95 -66 39 -53 66 -41 vhcurveto
          hintmask 11100100
          -80 -39 -44 -63 -70 vvcurveto
          -104 97 -74 138 140 97 78 110 87 -60 54 -72 43 vhcurveto
          hintmask 11011000
          75 41 34 59 56 vvcurveto
          -298 6 rmoveto
          21 8 25 20 24 vhcurveto
          8 19 18 3 17 hhcurveto
          56 39 -41 -53 -28 -10 -41 -51 -39 hvcurveto
          -63 34 -53 32 55 vvcurveto
          hintmask 11100100
          98 -461 rmoveto
          -70 -37 49 57 43 22 48 46 32 hvcurveto
          90 -49 36 -37 -56 vvcurveto
          -26 -8 -22 -17 -28 vhcurveto
          -7 -23 -21 -4 -18 hhcurveto
          endchar
        </CharString>
        <CharString name="ellipsis">
          287 2 -21 hstem
          94 173 131 173 131 173 cntrmask 01110000
          175 164 rmoveto
          97 callsubr
          304 hmoveto
          97 callsubr
          304 hmoveto
          97 callsubr
          endchar
        </CharString>
        <CharString name="emacron">
          -164 239.5 75 105.5 76 66 89 hstem
          14 139 vstem
          226 420 rmoveto
          55 42 -45 -56 9 hvcurveto
          -173 -9 9 45 22 44 36 21 rlinecurve
          208 -299 rmoveto
          -23 -47 -40 -13 -41 hhcurveto
          -84 -64 55 101 -5 hvcurveto
          255 -3 58 58 rlineto
          135 1 -105 65 -101 hhcurveto
          -136 -111 -115 -150 -153 120 -107 164 16 hvcurveto
          157 81 rlineto
          -365 558 -20 callgsubr
        </CharString>
        <CharString name="emdash">
          362 218 94 hstem
          37 926 vstem
          37 285 rmoveto
          7 -67 rlineto
          872 hlineto
          47 51 -4 43 rlineto
          -808 hlineto
          -31 -44 -8 -19 -39 hvcurveto
          endchar
        </CharString>
        <CharString name="endash">
          -79 218 94 hstem
          37 485 vstem
          37 285 rmoveto
          7 -67 rlineto
          430 hlineto
          48 51 -5 43 rlineto
          -367 hlineto
          -30 -44 -8 -19 -39 hvcurveto
          endchar
        </CharString>
        <CharString name="enspace">
          -148 endchar
        </CharString>
        <CharString name="eogonek">
          -148 -231 84 134 98 -77 -21 252.5 75 105.5 76 hstemhm
          14 139 27 104 hintmask 00111100
          226 420 rmoveto
          55 42 -45 -56 9 hvcurveto
          -173 -9 9 45 22 44 36 21 rlinecurve
          hintmask 01011100
          208 -299 rmoveto
          -23 -47 -40 -13 -41 hhcurveto
          -84 -64 55 101 -5 hvcurveto
          255 -3 58 58 rlineto
          135 1 -105 65 -101 hhcurveto
          -136 -111 -115 -150 -134 92 -98 133 -12 hvcurveto
          hintmask 11011110
          -39 -35 -20 -37 -37 vvcurveto
          297 callsubr
          123 62 -21 47 rlineto
          -85 -48 -52 26 51 vvcurveto
          51 53 44 74 42 vhcurveto
          44 24 rlineto
          endchar
        </CharString>
        <CharString name="equal">
          -64 120 81 103 81 hstem
          56 472 vstem
          56 201 rmoveto
          -81 472 81 vlineto
          -472 184 rmoveto
          -81 472 81 vlineto
          endchar
        </CharString>
        <CharString name="eth">
          -124 -26 87 337 81 hstem
          18 147 203 141 vstem
          192 717 rmoveto
          19 -25 17 -24 14 -23 -97 -46 rcurveline
          9 -35 59 -35 76 35 18 -37 15 -36 13 -38 rlinecurve
          17 -27 -30 9 -37 hhcurveto
          -119 -104 -96 -148 -159 120 -102 131 133 107 105 179 103 -36 131 -70 124 hvcurveto
          83 38 -44 85 -89 -42 -18 25 -19 25 -21 23 rlinecurve
          -130 -541 rmoveto
          67 27 72 41 30 vhcurveto
          50 -4 36 -18 40 -35 22 -107 -17 -119 -54 -54 rrcurveto
          -100 -7 -45 89 86 vvcurveto
          endchar
        </CharString>
        <CharString name="exclam">
          -316 1 -21 695 -20 22 18 hstemhm
          77 179 hintmask 11010000
          214 238 rmoveto
          42 437 rlineto
          hintmask 10110000
          -39 28 -94 -2 -46 -24 40 -439 rcurveline
          -37 -181 rmoveto
          152 callgsubr
          213 callgsubr
          rrcurveto
          endchar
        </CharString>
        <CharString name="exclamdown">
          -316 248 75 hstem
          77 179 vstem
          214 248 rmoveto
          42 -437 -39 -28 -94 2 -46 24 rlinecurve
          40 439 rlineto
          -37 181 rmoveto
          19 39 32 26 45 12 38 -19 26 -31 13 -41 -11 -41 -35 -32 -46 -19 -44 23 -30 34 -7 49 rrcurveto
          endchar
        </CharString>
        <CharString name="f">
          -282 0 260 callsubr
          178 102 368 callsubr
          hintmask 00010010
          64 callsubr
          hintmask 01001010
          182 callsubr
          hintmask 10001010
          4 49 rlineto
          hintmask 00101110
          -9 callsubr
          endchar
        </CharString>
        <CharString name="f_b.liga">
          295 -19 86 -67 49 -49 64 -64 84 286 101 -88 108 136 109 368 callsubr
          204 145 181 151 hintmask 1000011111000000
          528 736 rmoveto
          -242 235 callsubr
          hintmask 0010011111000000
          11 callsubr
          293 hlineto
          hintmask 0100011111000000
          4 49 rlineto
          hintmask 0001101111000000
          -25 15 -31 12 -31 8 rrcurveto
          141 callgsubr
          240 -16 rlineto
          hintmask 1000011111000000
          -597 46 callsubr
        </CharString>
        <CharString name="f_f.liga">
          84 0 260 callsubr
          178 102 368 callsubr
          220 146 hintmask 00010011
          104 callsubr
          hintmask 01001011
          204 callgsubr
          182 callsubr
          hintmask 10001011
          4 49 rlineto
          hintmask 00101111
          -9 callsubr
          hintmask 00010011
          445 127 85 callgsubr
          hintmask 01001011
          204 callgsubr
          182 callsubr
          hintmask 10001011
          4 49 rlineto
          hintmask 00101111
          -9 callsubr
          endchar
        </CharString>
        <CharString name="f_h.liga">
          339 0 49 321 101 20 -20 155.5 109.5 368 callsubr
          228 145 157 145 hintmask 10111110
          238 callsubr
          hintmask 11011110
          141 callgsubr
          264 -17 rlineto
          -552 164 callgsubr
          273 hlineto
          128 callgsubr
          277 vlineto
          32 19 32 14 26 115 callgsubr
          -230 vlineto
          107 callgsubr
          265 hlineto
          4 49 -21 12 -25 10 -26 7 rlinecurve
          219 vlineto
          hintmask 10111110
          80 -3 26 -10 18 vhcurveto
          -28 46 -56 22 -38 2 -44 -11 -60 -32 -63 -47 rrcurveto
          291 vlineto
          -49 44 rlineto
          -1 hlineto
          -265 235 callsubr
          11 callsubr
          endchar
        </CharString>
        <CharString name="f_i.liga">
          43 0 49 -49 751 -381 101 23 -20 175 102 -94 -20 368 callsubr
          229 145 hintmask 01000011
          64 callsubr
          hintmask 10101011
          182 callsubr
          4 49 -26 14 -33 11 -32 8 rlinecurve
          288 63 vlineto
          50 59 -2 42 rlineto
          -110 hlineto
          -48 178 53 -6 53 -25 44 -43 rlinecurve
          hintmask 10010111
          288 82 71 callgsubr
          4 49 190 callsubr
          rlinecurve
          371 vlineto
          -49 44 -61 -2 -65 -13 -52 -20 rlinecurve
          hintmask 10100111
          7 -48 75 -9 rlineto
          -335 67 callsubr
          endchar
        </CharString>
        <CharString name="f_j.liga">
          27 -195 -21 216 260 callsubr
          23 -20 175 102 368 callsubr
          232 145 hintmask 1000100011000000
          64 callsubr
          hintmask 1010001011000000
          182 callsubr
          hintmask 1100001011000000
          4 49 rlineto
          hintmask 1001010111000000
          -9 callsubr
          291 81 196 callsubr
          hintmask 1010001011000000
          357 callgsubr
          rrcurveto
          hintmask 1010010011000000
          7 -48 229 callsubr
          hintmask 1010001011000000
          367 callsubr
        </CharString>
        <CharString name="f_k.liga">
          325 0 49 -37 -21 379 101 23 -20 152.5 109.5 368 callsubr
          226 145 hintmask 10011110
          238 callsubr
          hintmask 10101110
          141 callgsubr
          262 -17 rlineto
          -552 164 callgsubr
          267 hlineto
          4 49 -16 10 -19 8 -20 7 rlinecurve
          117 vlineto
          44 3 rlineto
          hintmask 01011110
          87 -141 20 -31 14 -19 23 -12 rlinecurve
          162 30 -9 54 -40 -3 -22 4 -27 39 rlinecurve
          -93 136 150 181 -40 62 -61 -2 -78 -13 -58 -20 rlinecurve
          7 -48 70 -4 -112 -140 -37 -24 rlineto
          449 vlineto
          -49 44 rlineto
          -264 235 callsubr
          hintmask 10011110
          11 callsubr
          endchar
        </CharString>
        <CharString name="f_l.liga">
          51 0 49 321 101 155.5 109.5 hstem
          82 146 228 145 vstem
          238 callsubr
          141 callgsubr
          264 -17 rlineto
          -551 67 callsubr
          287 hlineto
          4 49 190 callsubr
          rlinecurve
          613 vlineto
          -49 44 rlineto
          -1 hlineto
          -265 235 callsubr
          11 callsubr
          endchar
        </CharString>
        <CharString name="f_t.liga">
          100 0 49 -49 64 -64 82 -82 751 -746 -21 386 101 178 102 368 callsubr
          220 145 hintmask 0001000110000000
          104 callsubr
          hintmask 0100010110000000
          204 callgsubr
          182 callsubr
          hintmask 1000010110000000
          4 49 rlineto
          hintmask 0010011110000000
          -9 callsubr
          382 -465 13 callsubr
          30 callsubr
          hintmask 0000110110000000
          -288 vlineto
          -53 64 -50 58 3 vhcurveto
          154 77 rlineto
          endchar
        </CharString>
        <CharString name="five">
          -83 -22 98 213 111 163 87 hstem
          388 133 vstem
          489 650 rmoveto
          -32 -2 rlineto
          2 -353 vlineto
          -32 -327 52 -51 rlineto
          11 31 35 6 31 hhcurveto
          91 76 -38 -85 -26 -7 -31 -35 -33 hvcurveto
          -80 -97 41 63 -82 hvcurveto
          -48 -132 rlineto
          -45 72 94 -25 74 hhcurveto
          150 92 96 120 140 -126 65 -112 1 hvcurveto
          -27 -33 -3 -10 -23 hvcurveto
          16 180 149 -8 19 -98 90 1 12 49 7 90 -4 49 rlinecurve
          endchar
        </CharString>
        <CharString name="four">
          -50 0 253 -90 90 417 -20 hstemhm
          317 141 hintmask 10110000
          531 hmoveto
          4 52 rlineto
          hintmask 01110000
          -77 12 rlineto
          99 85 vlineto
          30 28 -3 70 -112 -3 rlineto
          398 vlineto
          -39 -2 rlineto
          2 vlineto
          -73 14 -329 -426 31 -81 rlineto
          269 hlineto
          hintmask 10110000
          -85 vlineto
          -40 -12 -43 -16 -33 -17 6 -33 rcurveline
          110 428 rmoveto
          -173 vlineto
          -166 -4 174 262 rlineto
          endchar
        </CharString>
        <CharString name="four.dnom">
          -332 0 91 callgsubr
          350 callsubr
          hmoveto
          -63 callgsubr
        </CharString>
        <CharString name="four.numr">
          -332 340 91 callgsubr
          206.5 -20 350 callsubr
          340 rmoveto
          -63 callgsubr
        </CharString>
        <CharString name="foursuperior">
          -332 421 91 callgsubr
          350 callsubr
          421 rmoveto
          -63 callgsubr
        </CharString>
        <CharString name="fraction">
          -485 15 666 hstem
          -217 641 vstem
          -158 15 126 callgsubr
          endchar
        </CharString>
        <CharString name="g">
          137 callsubr
          hstemhm
          20 116 -100 142 168 143 hintmask 1011100110000000
          84 callgsubr
          hintmask 1101010110000000
          56 callgsubr
          hintmask 1101011010000000
          22 callsubr
          hintmask 1011100110000000
          130 98 71 101 hvcurveto
          hintmask 1011010110000000
          62 callgsubr
          hintmask 1011011010000000
          163 callsubr
          hintmask 1011010110000000
          -50 -33 -81 -26 -68 hhcurveto
          endchar
        </CharString>
        <CharString name="gbreve">
          137 callsubr
          46 85 hstemhm
          20 116 -100 142 -76 87 136 99 -78 143 hintmask 1011100010010000
          84 callgsubr
          hintmask 1101011010010000
          56 callgsubr
          hintmask 1101011100010000
          22 callsubr
          hintmask 1011100010010000
          130 98 71 101 hvcurveto
          hintmask 1011011010010000
          62 callgsubr
          hintmask 1011011100010000
          163 callsubr
          hintmask 1011011010010000
          -50 -33 -81 -26 -68 hhcurveto
          hintmask 1011011001100000
          77 844 23 callgsubr
        </CharString>
        <CharString name="gcommaaccent">
          137 callsubr
          hstemhm
          20 116 -100 142 87 108 -27 143 hintmask 1011100101000000
          84 callgsubr
          hintmask 1101010101000000
          56 callgsubr
          hintmask 1101011010000000
          22 callsubr
          hintmask 1011100101000000
          130 98 71 101 hvcurveto
          hintmask 1011010101000000
          62 callgsubr
          hintmask 1011011010000000
          163 callsubr
          hintmask 1011010101000000
          -50 -33 -81 -26 -68 hhcurveto
          hintmask 1011010110000000
          -8 815 -84 callgsubr
        </CharString>
        <CharString name="germandbls">
          -36 0 65 -62 -21 613 92 hstemhm
          82 144 143 137 -50 137 hintmask 01111000
          82 478 rmoveto
          -16 vlineto
          -27 -11 -25 -14 -25 -18 4 -52 rcurveline
          73 1 rlineto
          hintmask 10111000
          -303 vlineto
          -25 -9 -26 -10 -20 -12 3 -34 rcurveline
          212 436 hlineto
          -8 137 38 25 57 1 31 -9 rlinecurve
          65 -82 -77 -98 -47 -76 rrcurveto
          hintmask 01110100
          8 -108 163 -19 -85 vvcurveto
          -17 -7 -15 -12 -17 vhcurveto
          -48 10 -48 28 -30 25 -40 -123 rcurveline
          -19 44 52 -12 45 hhcurveto
          101 80 55 94 135 -165 30 -21 71 hvcurveto
          hintmask 01111000
          69 46 30 48 52 vvcurveto
          89 -86 85 -121 -84 -133 -53 -156 vhcurveto
          endchar
        </CharString>
        <CharString name="grave">
          -354 533 238 hstem
          26 246 vstem
          272 593 26 callsubr
        </CharString>
        <CharString name="gravecomb">
          533 238 hstem
          -151 246 vstem
          95 593 26 callsubr
        </CharString>
        <CharString name="gravecomb.case">
          688 210 hstem
          -149 295 vstem
          -91 898 70 callgsubr
          endchar
        </CharString>
        <CharString name="greater">
          -72 15 -21 hstem
          378.5 127 vstem
          379 244 rmoveto
          -1 -6 -308 -163 44 -81 389 208 5 70 -394 228 -43 -76 rlineto
          endchar
        </CharString>
        <CharString name="greaterequal">
          -50 0 81 hstem
          56 486 vstem
          81 536 rmoveto
          320 -169 -1 -6 -317 -151 40 -72 389 188 8 70 -397 208 rlineto
          -67 -604 rmoveto
          486 81 -486 hlineto
          endchar
        </CharString>
        <CharString name="guillemotleft">
          -66 38 434 hstem
          56 469 vstem
          56 220 250 callsubr
          234 -66 250 callsubr
          endchar
        </CharString>
        <CharString name="guillemotright">
          -66 38 434 hstem
          56 469 vstem
          525 286 247 callgsubr
          -234 66 247 callgsubr
          endchar
        </CharString>
        <CharString name="guilsinglleft">
          -301 38 434 hstem
          56 235 vstem
          56 220 rmoveto
          158 -182 77 52 -101 163 95 171 -74 48 -155 -186 rlineto
          endchar
        </CharString>
        <CharString name="guilsinglright">
          -301 38 434 hstem
          56 235 vstem
          136 472 rmoveto
          -74 -48 95 -171 -101 -163 77 -52 158 182 rlineto
          66 vlineto
          endchar
        </CharString>
        <CharString name="h">
          -26 264 callgsubr
          hstemhm
          91 145 157 145 hintmask 10111000
          293 hmoveto
          128 callgsubr
          277 vlineto
          32 19 32 14 26 115 callgsubr
          hintmask 01111000
          -230 vlineto
          hintmask 10111000
          107 callgsubr
          265 hlineto
          4 49 -21 12 -25 10 -26 7 rlinecurve
          219 vlineto
          80 -3 26 -10 18 vhcurveto
          -28 46 -56 22 -38 2 -44 -11 -60 -32 -63 -47 rrcurveto
          291 58 callsubr
          -579 164 callgsubr
          endchar
        </CharString>
        <CharString name="hungarumlaut">
          -148 534 229 hstem
          30 435 vstem
          100 534 2 callgsubr
        </CharString>
        <CharString name="hyphen">
          68 callsubr
        </CharString>
        <CharString name="hyphen.deva">
          68 callsubr
        </CharString>
        <CharString name="i">
          -323 0 49 -49 67 -67 79 415 -20 183 -20 hstemhm
          91 145 hintmask 01011100
          253 657 71 callgsubr
          hintmask 10011100
          4 49 rlineto
          hintmask 00111100
          190 callsubr
          rrcurveto
          371 -76 callgsubr
          hintmask 01011100
          -335 67 callsubr
          endchar
        </CharString>
        <CharString name="iacute">
          -59 callgsubr
          280 685 -57 callsubr
        </CharString>
        <CharString name="icircumflex">
          -335 206 callsubr
          76 -76 731 -241 -20 hstemhm
          91 145 hintmask 01001100
          293 hmoveto
          hintmask 10001100
          4 49 rlineto
          hintmask 00101100
          118 callgsubr
          rrcurveto
          370 -76 callgsubr
          hintmask 01001100
          -332 134 callgsubr
          8 528 rmoveto
          121 112 133 -108 52 49 rlineto
          hintmask 00010100
          -129 150 rlineto
          -105 hlineto
          -130 -157 rlineto
          endchar
        </CharString>
        <CharString name="idieresis">
          -59 callgsubr
          8 716 -101 callgsubr
          endchar
        </CharString>
        <CharString name="igrave">
          -59 callgsubr
          223 590 26 callsubr
        </CharString>
        <CharString name="imacron">
          -307 206 callsubr
          76 414 -20 103 89 -47 47 hstemhm
          107 145 hintmask 01011010
          14 637 rmoveto
          6 -64 rlineto
          258 hlineto
          hintmask 01010110
          47 42 rlineto
          hintmask 01011010
          -5 47 rlineto
          -193 77 callsubr
          295 -637 rmoveto
          hintmask 10011010
          4 49 rlineto
          hintmask 00111010
          118 callgsubr
          rrcurveto
          370 -76 callgsubr
          hintmask 01011010
          -332 134 callgsubr
          endchar
        </CharString>
        <CharString name="infinity">
          108 150 105 -103 114 149 106 -99 101 hstemhm
          30 108 489 107 hintmask 10011100
          30 331 rmoveto
          hintmask 01011100
          -119 95 -60 79 65 58 42 70 45 vhcurveto
          hintmask 10101100
          -59 46 53 -55 83 hhcurveto
          88 92 62 123 112 -78 74 -85 -65 -59 -46 -65 -47 hvcurveto
          hintmask 10011100
          57 -48 -57 56 -81 hhcurveto
          -92 -92 -76 -116 hvcurveto
          hintmask 01011100
          205 -65 rmoveto
          -58 -39 40 54 20 8 18 12 15 hvcurveto
          60 31 58 -50 57 -78 rrcurveto
          -32 -26 -33 -18 -39 hhcurveto
          hintmask 10101100
          312 149 rmoveto
          51 29 -48 -43 -22 -8 -24 -15 -17 hvcurveto
          -61 -24 -42 47 -61 77 rrcurveto
          33 33 40 21 34 hhcurveto
          endchar
        </CharString>
        <CharString name="integral">
          -269 20 -21 hstem
          -39 456 vstem
          110 -178 rmoveto
          -45 -1 -48 17 -56 33 75 128 rcurveline
          25 -25 63 -56 71 3 -150 587 rcurveline
          138 114 103 109 2 vhcurveto
          49 1 45 -15 55 -35 -75 -128 rcurveline
          -25 25 -61 55 -71 -2 150 -587 rcurveline
          -137 -116 -105 -109 -1 vhcurveto
          endchar
        </CharString>
        <CharString name="iogonek">
          -323 -270 84 -1 -21 208 67 427 -20 183 -20 hstemhm
          49 103 -61 145 hintmask 01111010
          253 657 71 callgsubr
          4 49 190 callsubr
          rlinecurve
          371 -76 callgsubr
          -335 67 callsubr
          173 hlineto
          hintmask 10111100
          -93 -45 -49 -59 -58 vvcurveto
          -60 54 -56 85 8 vhcurveto
          hintmask 01111010
          123 62 rlineto
          hintmask 10111100
          -21 47 rlineto
          -85 352 callgsubr
          49 49 42 70 41 vhcurveto
          endchar
        </CharString>
        <CharString name="j">
          -339 -195 -21 710 -20 hstem
          94 145 vstem
          256 656 196 callsubr
          357 callgsubr
          7 -48 rcurveline
          229 callsubr
          367 callsubr
        </CharString>
        <CharString name="k">
          -38 206 callsubr
          74 -62 -21 503 -20 hstemhm
          91 145 -5 callgsubr
          endchar
        </CharString>
        <CharString name="kcommaaccent">
          -38 206 callsubr
          74 -62 -21 503 -20 hstemhm
          91 145 30 108 -5 callgsubr
          hintmask 00011110
          221 -140 -84 callgsubr
        </CharString>
        <CharString name="l">
          169 callsubr
          2 callsubr
          endchar
        </CharString>
        <CharString name="lacute">
          169 callsubr
          2 callsubr
          52 773 -57 callgsubr
          endchar
        </CharString>
        <CharString name="lcaron">
          169 callsubr
          112 114 hintmask 01011000
          305 hmoveto
          hintmask 10011000
          4 49 rlineto
          hintmask 00111000
          190 callsubr
          rrcurveto
          613 58 callsubr
          hintmask 01011000
          -578 67 callsubr
          300 705 22 callgsubr
        </CharString>
        <CharString name="lcommaaccent">
          169 callsubr
          -102 108 2 callsubr
          hintmask 01001000
          91 -140 -84 callgsubr
        </CharString>
        <CharString name="less">
          -72 15 -21 hstem
          70.5 127 vstem
          68 272 rmoveto
          5 -70 389 -208 44 81 -308 163 -1 6 308 180 -43 76 rlineto
          endchar
        </CharString>
        <CharString name="lessequal">
          -50 0 81 hstem
          56 486 vstem
          78 396 rmoveto
          8 -70 389 -188 40 72 -317 151 -1 6 320 169 -42 68 rlineto
          -419 -523 rmoveto
          -81 486 81 vlineto
          endchar
        </CharString>
        <CharString name="logicalnot">
          -56 0 273 -87 87 hstemhm
          439 97 hintmask 01100000
          56 273 rmoveto
          -87 383 vlineto
          hintmask 10100000
          -186 97 vlineto
          hintmask 01100000
          273 vlineto
          endchar
        </CharString>
        <CharString name="lslash">
          -241 0 49 -49 67 -67 79 395 -20 37 -20 hstemhm
          113 145 hintmask 01001100
          9 323 rmoveto
          33 -63 71 37 rlineto
          -230 67 callsubr
          287 hlineto
          hintmask 10001100
          4 49 rlineto
          hintmask 00110100
          190 callsubr
          rrcurveto
          294 vlineto
          95 49 1 52 rlineto
          hintmask 01001100
          -25 17 -71 -37 rlineto
          238 58 callsubr
          -267 vlineto
          endchar
        </CharString>
        <CharString name="m">
          267 0 49 338 104 3 -20 hstemhm
          91 145 153 145 153 145 cntrmask 00011100
          hintmask 10111100
          293 hmoveto
          128 callgsubr
          hintmask 11011100
          280 vlineto
          31 17 30 13 25 115 callgsubr
          -230 vlineto
          107 callgsubr
          256 hlineto
          4 49 -18 11 -22 9 -23 8 rlinecurve
          220 vlineto
          24 0 19 -1 15 vhcurveto
          31 18 31 13 25 115 callgsubr
          -229 vlineto
          -20 -8 -20 -9 -16 -9 3 -34 rcurveline
          264 hlineto
          4 49 -18 12 -26 9 -26 8 rlinecurve
          219 vlineto
          80 -3 26 -10 18 vhcurveto
          -28 46 -56 22 -38 2 -45 -11 -60 -33 -64 -47 -1 9 -3 6 -3 6 -28 46 -56 22 -38 2 rrcurveto
          hintmask 10111100
          -43 -11 -59 -31 -61 -45 rrcurveto
          42 vlineto
          -49 48 57 callsubr
          -25 -9 -27 -11 -21 -12 3 -34 rcurveline
          endchar
        </CharString>
        <CharString name="macron">
          -215 565 89 hstem
          56 359 vstem
          56 629 -20 callgsubr
        </CharString>
        <CharString name="minus">
          -50 205 87 hstem
          56 486 vstem
          56 292 rmoveto
          -87 486 87 vlineto
          endchar
        </CharString>
        <CharString name="multiply">
          -86 20 438 hstem
          65 431 vstem
          282 302 rmoveto
          -150 156 -67 -62 153 -158 -151 -155 65 -63 148 156 150 -156 65 64 -151 156 152 156 -66 62 rlineto
          endchar
        </CharString>
        <CharString name="n">
          -77 callgsubr
          endchar
        </CharString>
        <CharString name="nacute">
          -77 callgsubr
          442 685 -57 callsubr
        </CharString>
        <CharString name="ncaron">
          -77 callgsubr
          92 689 -46 callsubr
        </CharString>
        <CharString name="ncommaaccent">
          -25 264 callgsubr
          23 -20 hstemhm
          91 145 49 108 2 145 hintmask 10011010
          293 hmoveto
          128 callgsubr
          276 vlineto
          33 19 33 15 26 115 callgsubr
          hintmask 01011010
          -230 vlineto
          hintmask 10011100
          107 callgsubr
          hintmask 10101010
          264 hlineto
          4 49 -19 12 -26 9 -26 8 rlinecurve
          219 vlineto
          80 -3 26 -10 18 vhcurveto
          -28 46 -56 22 -38 2 rrcurveto
          hintmask 10011100
          -45 -11 -60 -33 -64 -47 rrcurveto
          46 vlineto
          -49 48 57 callsubr
          -25 -9 -27 -11 -21 -12 3 -34 rcurveline
          239 -140 -84 callgsubr
        </CharString>
        <CharString name="nine">
          -101 12 -21 243 92 260 84 hstem
          28 148 202 141 vstem
          176 460 rmoveto
          51 20 53 37 19 vhcurveto
          104 23 41 -116 -120 vvcurveto
          -105 -30 -110 -82 -49 vhcurveto
          -181 34 23 -149 rlineto
          225 -11 186 157 236 vvcurveto
          169 -96 128 -160 -135 -100 -90 -130 -153 142 -108 168 64 vhcurveto
          -11 78 rlineto
          -90 -23 -61 67 85 vvcurveto
          endchar
        </CharString>
        <CharString name="notequal">
          -64 4 -21 137 81 103 81 97 -20 hstem
          56 472 vstem
          169 -17 rmoveto
          85 137 rlineto
          274 81 -224 hlineto
          64 103 rlineto
          160 81 -110 hlineto
          60 97 -50 28 -78 -125 rlineto
          -294 -81 244 hlineto
          -64 -103 rlineto
          -180 -81 130 hlineto
          -67 -108 rlineto
          endchar
        </CharString>
        <CharString name="ntilde">
          -25 264 callgsubr
          23 -20 150 103 hstemhm
          91 145 159 145 hintmask 10011110
          293 hmoveto
          128 callgsubr
          276 vlineto
          33 19 33 15 26 115 callgsubr
          hintmask 01011110
          -230 vlineto
          hintmask 10101110
          107 callgsubr
          264 hlineto
          4 49 -19 12 -26 9 -26 8 rlinecurve
          219 vlineto
          80 -3 26 -10 18 vhcurveto
          -28 46 -56 22 -38 2 rrcurveto
          hintmask 10011110
          -45 -11 -60 -33 -64 -47 rrcurveto
          46 vlineto
          -49 48 57 callsubr
          -25 -9 -27 -11 -21 -12 3 -34 rcurveline
          137 548 -33 callgsubr
        </CharString>
        <CharString name="numbersign">
          -26 -11 536.5 -515.5 -21 32 -21 128 73 133 73 hstemhm
          56 481 -481 510 -481 481 hintmask 00111010
          130 hmoveto
          hintmask 01011010
          81 -11 21 139 rlineto
          120 hlineto
          hintmask 00111010
          -20 -128 rlineto
          hintmask 01011010
          81 -11 21 139 rlineto
          hintmask 00111100
          103 73 -92 hlineto
          hintmask 00111001
          21 133 rlineto
          100 73 -89 284 callsubr
          -119 284 callsubr
          -107 -73 96 hlineto
          -20 -133 rlineto
          hintmask 00111100
          -105 -73 94 hlineto
          213 73 rmoveto
          -120 hlineto
          21 133 rlineto
          119 hlineto
          endchar
        </CharString>
        <CharString name="o">
          165 callsubr
          -97 callgsubr
          endchar
        </CharString>
        <CharString name="oacute">
          165 callsubr
          -97 callgsubr
          140 623 -57 callsubr
        </CharString>
        <CharString name="ocircumflex">
          165 callsubr
          -97 callgsubr
          -132 466 -11 callsubr
        </CharString>
        <CharString name="odieresis">
          165 callsubr
          -97 callgsubr
          -132 654 -101 callgsubr
          endchar
        </CharString>
        <CharString name="oe">
          170 -20 82 -75 98 154.5 74.5 97 85 -76 76 hstemhm
          14 148 186 136 hintmask 10110110
          267 62 rmoveto
          -75 -30 83 98 63 11 58 25 33 hvcurveto
          8 12 19 6 20 hhcurveto
          71 28 -85 -101 -63 -9 -68 -38 -27 hvcurveto
          -4 -13 -11 -1 -10 hhcurveto
          hintmask 01101110
          293 358 rmoveto
          56 42 -45 -56 9 hvcurveto
          -176 -10 11 47 23 43 35 21 rlinecurve
          73 -433 rmoveto
          157 81 -22 53 rlineto
          -23 -46 -39 -13 -44 hhcurveto
          -87 -65 52 104 -3 hvcurveto
          258 -3 58 58 rlineto
          hintmask 10110110
          135 2 -106 65 -101 hhcurveto
          -65 -59 -27 -45 -44 hvcurveto
          47 -44 -61 25 -65 hhcurveto
          -128 -115 -92 -163 -163 116 -98 130 66 60 25 48 44 hvcurveto
          hintmask 01101110
          49 -46 68 -28 86 8 rrcurveto
          endchar
        </CharString>
        <CharString name="ogonek">
          -354 -252 84 hstem
          30 103 vstem
          233 43 rmoveto
          -133 -46 -70 -72 -69 89 callsubr
          51 53 43 75 43 vhcurveto
          endchar
        </CharString>
        <CharString name="ograve">
          165 callsubr
          -97 callgsubr
          83 528 26 callsubr
        </CharString>
        <CharString name="ohungarumlaut">
          165 callsubr
          -97 callgsubr
          -111 469 2 callgsubr
        </CharString>
        <CharString name="omacron">
          165 callsubr
          66 89 -97 callgsubr
          -177 564 -20 callgsubr
        </CharString>
        <CharString name="one">
          -210 0 52 -52 71 -71 83 587 -20 hstemhm
          167 145 hintmask 01011000
          312 627 rmoveto
          -65 43 -232 -143 33 -58 119 50 rlineto
          hintmask 00111000
          -436 vlineto
          hintmask 01011000
          -48 -13 -51 -18 -38 -19 6 -33 rcurveline
          392 hlineto
          hintmask 10011000
          4 52 rlineto
          hintmask 01011000
          -120 19 rlineto
          endchar
        </CharString>
        <CharString name="one.dnom">
          -389 0 27 -27 41 hstemhm
          86 92 hintmask 10100000
          179 300 -4 callsubr
          rlineto
          hintmask 01100000
          -58 14 rlineto
          hintmask 10100000
          259 vlineto
          endchar
        </CharString>
        <CharString name="one.numr">
          -389 340 27 299 -20 hstem
          86 92 vstem
          132 callgsubr
          endchar
        </CharString>
        <CharString name="onehalf">
          73 0 60 224 46 10 27 299 -20 hstemhm
          86 92 423 91 hintmask 10111000
          132 callgsubr
          -77 -625 126 callgsubr
          hintmask 11111100
          471 121 -16 callsubr
        </CharString>
        <CharString name="onequarter">
          90 0 91 callgsubr
          216.5 27 299 -20 hstem
          86 92 397 86 vstem
          132 callgsubr
          -77 -625 126 callgsubr
          656 -71 rmoveto
          -63 callgsubr
        </CharString>
        <CharString name="onesuperior">
          -389 421 27 hstem
          86 92 vstem
          179 721 -4 callsubr
          -58 14 rlineto
          259 vlineto
          endchar
        </CharString>
        <CharString name="ordfeminine">
          -219 196 59 40 60 59 38.5 120.5 54 hstem
          43 96 88 103 vstem
          43 375 rmoveto
          -46 41 -42 79 8 vhcurveto
          72 48 14 -29 28 -20 23 -1 rlinecurve
          85 46 -5 29 rlineto
          -1 -13 -10 -2 -10 hhcurveto
          -11 -6 7 9 hvcurveto
          125 vlineto
          41 -1 13 -6 12 vhcurveto
          -17 28 -31 26 -41 1 rrcurveto
          -46 -84 -17 -25 -45 hvcurveto
          -2 -28 5 -38 7 -29 63 3 rcurveline
          12 74 rlineto
          3 12 18 3 21 hhcurveto
          19 -9 13 -19 -38 vvcurveto
          -53 vlineto
          -137 -3 rlineto
          -34 -22 -13 -29 -25 vvcurveto
          108 -20 rmoveto
          -7 6 -5 8 11 vvcurveto
          34 48 3 34 -3 vhcurveto
          6 -1 rlineto
          -42 vlineto
          -7 -21 -32 -9 -23 hhcurveto
          -121 -100 rmoveto
          -59 368 59 vlineto
          endchar
        </CharString>
        <CharString name="ordmasculine">
          -220 196 59 30 62 216 67 hstemhm
          32 107 120 106 vstemhm
          199 285 rmoveto
          86 80 58 112 110 -79 65 -84 -82 -88 -61 -112 -104 76 -68 91 hvcurveto
          11 62 rmoveto
          -49 -22 45 66 48 12 42 15 11 hvcurveto
          2 8 6 2 9 hhcurveto
          53 17 -60 -63 -56 -17 -30 -10 -4 hvcurveto
          -2 -7 -7 -1 -8 hhcurveto
          hintmask 10111000
          -192 -92 rmoveto
          -59 364 59 vlineto
          endchar
        </CharString>
        <CharString name="oslash">
          -127 -20 82 -41 -21 411 85 -11 -20 hstemhm
          14 148 186 148 hintmask 10101100
          260 -20 rmoveto
          126 110 89 167 hvcurveto
          hintmask 10011100
          76 -23 60 -37 44 vhcurveto
          45 69 rlineto
          hintmask 01101100
          -75 48 -41 -62 rlineto
          17 -33 -37 8 -38 hhcurveto
          -128 -115 -92 -163 -81 29 -66 45 -44 hvcurveto
          -53 -81 74 -51 54 82 rlineto
          hintmask 10101100
          -13 30 33 -7 34 hhcurveto
          -98 263 rmoveto
          63 11 58 25 33 vhcurveto
          8 12 19 6 20 hhcurveto
          24 20 -10 -18 15 hvcurveto
          -140 -211 rlineto
          -4 22 -2 24 25 vvcurveto
          105 -181 rmoveto
          -21 -17 6 11 -14 hvcurveto
          130 199 rlineto
          2 -17 1 -18 -19 vvcurveto
          -62 -9 -68 -38 -27 vhcurveto
          -4 -13 -11 -1 -10 hhcurveto
          endchar
        </CharString>
        <CharString name="otilde">
          165 callsubr
          128 103 -97 callgsubr
          -165 486 -33 callgsubr
        </CharString>
        <CharString name="p">
          -63 -203 49 -49 60 133 79 -51 -21 386 108 3 -20 hstemhm
          90 145 174 154 hintmask 01101011
          322 -203 rmoveto
          hintmask 10011011
          4 49 -26 13 -33 11 -32 10 rlinecurve
          117 vlineto
          hintmask 01101011
          -4 25 24 -3 23 hhcurveto
          162 94 124 144 136 -84 119 -137 -25 hvcurveto
          -107 -76 rlineto
          38 vlineto
          -48 43 rlineto
          1 -1 vlineto
          hintmask 01100111
          -60 -2 -65 -13 -52 -20 7 -48 rcurveline
          74 -9 rlineto
          -545 364 callsubr
          hintmask 01101011
          279 586 rmoveto
          65 38 -73 -79 -64 -24 -66 -41 -32 hvcurveto
          -40 -4 -38 6 -31 11 rrcurveto
          279 vlineto
          13 25 24 9 22 hhcurveto
          endchar
        </CharString>
        <CharString name="paragraph">
          18 -165 55 706 92 hstem
          0 166 115 95 75 95 vstem
          314 688 rmoveto
          -219 14 -95 -114 -111 vvcurveto
          -90 64 -88 109 -34 vhcurveto
          38 37 rlineto
          -30 45 -15 36 47 vvcurveto
          83 46 52 69 21 vhcurveto
          -677 vlineto
          -27 -6 -51 -13 -34 -16 6 -39 rcurveline
          106 -1 95 762 hlineto
          2 1 0 2 hhcurveto
          70 -4 rlineto
          -758 95 1 87 vlineto
          1 50 -88 10 rlineto
          691 vlineto
          79 -5 7 65 rlineto
          endchar
        </CharString>
        <CharString name="parenleft">
          -317 -155 887 hstem
          28 148 vstem
          294 -108 rmoveto
          -72 135 -46 138 140 vvcurveto
          122 39 128 84 131 vhcurveto
          -84 46 rlineto
          -130 -142 -57 -146 -144 vvcurveto
          -164 68 -152 112 -139 vhcurveto
          endchar
        </CharString>
        <CharString name="parenright">
          -318 -155 887 hstem
          154 148 vstem
          302 300 rmoveto
          144 -57 146 -130 142 vhcurveto
          -84 -46 rlineto
          84 -131 39 -128 -122 vvcurveto
          -140 -46 -138 -72 -135 vhcurveto
          86 -47 rlineto
          112 139 68 152 164 vvcurveto
          endchar
        </CharString>
        <CharString name="partialdiff">
          -48 -34 84 hstem
          68 137 212 136 vstem
          298 -34 rmoveto
          156 99 136 190 200 -108 196 -240 73 hvcurveto
          -29 -69 115 -38 78 -102 32 -119 rlinecurve
          -99 40 rlineto
          -126 -108 -119 -147 -135 88 -106 142 hvcurveto
          4 84 rmoveto
          -66 6 -33 63 2 71 2 97 68 103 137 -14 rrcurveto
          3 -22 2 -23 -23 vvcurveto
          -113 -39 -107 -76 -38 vhcurveto
          endchar
        </CharString>
        <CharString name="percent">
          180 -20 78 -57 -21 248 81 211 80 hstemhm
          48 91 123 93 118 91 123 93 hintmask 01111111
          211 -29 rmoveto
          453 572 -64 52 -454 -571 rlineto
          -7 412 rmoveto
          30 11 30 19 20 vhcurveto
          62 18 31 -50 -52 vvcurveto
          -31 -11 -33 -23 -18 vhcurveto
          -61 -10 -28 47 49 vvcurveto
          67 -165 rmoveto
          86 63 72 88 92 -68 77 -86 -86 -67 -78 -88 -91 72 -72 86 hvcurveto
          hintmask 10111111
          358 -127 rmoveto
          31 11 30 19 20 vhcurveto
          62 17 31 -49 -52 vvcurveto
          -32 -11 -32 -23 -19 vhcurveto
          -61 -9 -28 46 49 vvcurveto
          67 -164 rmoveto
          86 63 72 88 91 -68 78 -86 -86 -67 -79 -87 -91 72 -72 86 hvcurveto
          endchar
        </CharString>
        <CharString name="period">
          -388 -39 168 hstem
          91 169 vstem
          260 55 26 callgsubr
        </CharString>
        <CharString name="period.deva">
          -388 -39 168 hstem
          91 169 vstem
          260 55 26 callgsubr
        </CharString>
        <CharString name="periodcentered">
          -394 185 168 hstem
          30 169 vstem
          199 279 26 callgsubr
        </CharString>
        <CharString name="perthousand">
          541 -24 78 169 82 -34 79 169 81 hstemhm
          48 91 124 92 118 91 124 92 54 91 124 92 hintmask 1101111111000000
          228 -38 rmoveto
          409 576 -64 47 -408 -574 rlineto
          hintmask 1011111000000000
          50 339 rmoveto
          -52 -24 52 45 25 8 24 15 17 hvcurveto
          4 10 9 2 8 hhcurveto
          45 29 -46 -50 -24 -7 -27 -21 -20 hvcurveto
          -1 -7 -6 -1 -7 hhcurveto
          -10 -79 rmoveto
          87 63 71 93 86 -68 79 -87 -85 -67 -79 -86 -92 73 -72 84 hvcurveto
          436 -217 rmoveto
          -50 -27 48 48 hvcurveto
          hintmask 1100001100000000
          23 7 25 16 20 vhcurveto
          364 callgsubr
          -26 -7 -26 -21 -19 hvcurveto
          hintmask 1011111000000000
          -2 -7 -6 -1 -6 hhcurveto
          -11 -78 rmoveto
          hintmask 1100001100000000
          324 callgsubr
          hvcurveto
          hintmask 1011111000000000
          -92 73 -72 84 vhcurveto
          hintmask 1100000011000000
          372 78 rmoveto
          -50 -27 48 48 22 7 26 16 20 hvcurveto
          364 callgsubr
          -25 -7 -27 -21 -19 hvcurveto
          -2 -7 -6 -1 -6 hhcurveto
          -11 -78 rmoveto
          324 callgsubr
          -92 73 -72 84 hvcurveto
          endchar
        </CharString>
        <CharString name="pi">
          79 -16 487 -474 474 -450 -21 378.5 92.5 hstemhm
          203.5 142.5 111.5 241.5 hintmask 00011100
          30 376 rmoveto
          33 -47 90 62 54 -3 -7 -193 -2 -52 -3 -65 -11 -22 rlinecurve
          -32 21 -33 23 -30 24 rrcurveto
          hintmask 10001100
          -45 -111 rlineto
          -21 55 51 -8 37 hhcurveto
          128 23 104 142 5 hvcurveto
          hintmask 00011100
          6 151 107 -5 rlineto
          hintmask 01001100
          3 -345 46 -34 rlineto
          hintmask 00111100
          106 3 -32 370 83 -4 rlineto
          hintmask 01001100
          39 29 -4 76 rlineto
          -546 hlineto
          hintmask 00011100
          -37 -11 -59 -49 -25 -35 rrcurveto
          endchar
        </CharString>
        <CharString name="plus">
          -78 205 88 -88 277 hstemhm
          237 97 hintmask 10100000
          334 293 rmoveto
          hintmask 01100000
          189 -97 vlineto
          hintmask 10100000
          -189 -181 -88 181 -189 97 189 180 88 vlineto
          endchar
        </CharString>
        <CharString name="plusminus">
          -102 0 86 67 442 -263 85 hstemhm
          59.5 423.5 -258 97 hintmask 10101000
          322 417 rmoveto
          hintmask 11001000
          178 -97 vlineto
          hintmask 10101000
          -178 -169 -85 169 vlineto
          hintmask 11001000
          -179 97 vlineto
          hintmask 10101000
          179 168 85 vlineto
          hintmask 10110000
          -431 -331 rmoveto
          1 -86 rlineto
          423 86 hlineto
          endchar
        </CharString>
        <CharString name="product">
          167 -100 51 698 86 hstem
          147 152 215 152 vstem
          28 704 rmoveto
          10 -55 rlineto
          109 -676 hlineto
          -54 callgsubr
          323 hlineto
          1 51 -93 13 rlineto
          685 215 -676 53 callgsubr
          322 hlineto
          1 51 -92 13 rlineto
          685 79 vlineto
          42 39 -4 47 rlineto
          -654 hlineto
          -31 -35 -11 -20 -35 hvcurveto
          endchar
        </CharString>
        <CharString name="q">
          -79 -203 49 -49 74 116 111 315 84 hstemhm
          14 152 173 145 hintmask 10111100
          542 425 rmoveto
          -17 48 -85 -12 rlineto
          22 -51 -51 14 -53 hhcurveto
          -160 -111 -116 -146 -129 86 -122 140 3 hvcurveto
          99 72 rlineto
          hintmask 01111100
          -188 vlineto
          hintmask 10111100
          -31 -9 -40 -15 -28 -15 3 -35 rcurveline
          293 hlineto
          4 49 rlineto
          hintmask 01111100
          -17 10 -19 9 -20 7 rrcurveto
          508 vlineto
          -207 -282 rmoveto
          -70 -41 69 85 62 22 63 39 36 hvcurveto
          41 4 38 -9 33 -17 rrcurveto
          -278 vlineto
          -10 -23 -21 -5 -18 hhcurveto
          endchar
        </CharString>
        <CharString name="question">
          -26 1 -21 629 94 hstem
          378 144 vstem
          198 460 rmoveto
          41 132 rlineto
          12 30 28 5 27 hhcurveto
          35 -18 19 -34 -38 -108 -155 -14 -154 vvcurveto
          124 hlineto
          13 116 162 8 143 vvcurveto
          108 -90 85 -134 -84 -69 -33 -42 -52 vhcurveto
          -1 vlineto
          -2 -19 8 -84 13 -64 rrcurveto
          102 -403 rmoveto
          152 callgsubr
          213 callgsubr
          rrcurveto
          endchar
        </CharString>
        <CharString name="questiondown">
          -26 -233 94 629 -20 hstem
          93 144 vstem
          417 10 rmoveto
          -41 -132 rlineto
          -12 -30 -28 -5 -27 hhcurveto
          -35 18 -19 34 38 108 155 14 154 vvcurveto
          -124 hlineto
          -13 -116 -162 -8 -143 vvcurveto
          -108 90 -85 134 84 69 33 42 52 vhcurveto
          1 vlineto
          2 19 -8 84 -13 64 rrcurveto
          -102 403 rmoveto
          -19 39 -32 26 -45 12 -38 -19 -26 -31 -13 -41 11 -41 35 -32 46 -19 44 23 30 34 7 49 rrcurveto
          endchar
        </CharString>
        <CharString name="quotedbl">
          -239 674 -20 hstem
          17 388 vstem
          104 419 249 callsubr
          295 -31 249 callsubr
          endchar
        </CharString>
        <CharString name="quotedblbase">
          -203 -141 297 360 callsubr
          -141 -36 callsubr
          235 -44 -36 callsubr
          endchar
        </CharString>
        <CharString name="quotedblleft">
          -203 459 297 hstem
          26 110 91 110 vstem
          169 756 -9 callgsubr
          166 44 -9 callgsubr
          endchar
        </CharString>
        <CharString name="quotedblright">
          -203 663 -20 360 callsubr
          459 -36 callsubr
          235 -44 -36 callsubr
          endchar
        </CharString>
        <CharString name="quoteleft">
          -404 459 297 hstem
          26 110 vstem
          169 756 -9 callgsubr
          endchar
        </CharString>
        <CharString name="quoteright">
          -403 663 -20 hstem
          108 111 vstem
          75 459 -36 callsubr
          endchar
        </CharString>
        <CharString name="quotesinglbase">
          -403 -141 297 hstem
          108 111 vstem
          75 -141 -36 callsubr
          endchar
        </CharString>
        <CharString name="quotesingle">
          -467 477 271 hstem
          -25 171 vstem
          61 477 rmoveto
          48 72 35 104 2 79 -98 16 rcurveline
          -40 -39 2 -39 -2 -78 -33 -84 rlinecurve
          endchar
        </CharString>
        <CharString name="r">
          -69 callsubr
          endchar
        </CharString>
        <CharString name="racute">
          -69 callsubr
          382 685 -57 callsubr
        </CharString>
        <CharString name="radical">
          97 -89 840 hstem
          30 637 vstem
          264 471 rmoveto
          -92 hlineto
          -142 -124 55 -73 95 62 132 -425 40 -2 57 5 36 14 rlinecurve
          222 785 -106 38 -187 -666 rlineto
          endchar
        </CharString>
        <CharString name="rcaron">
          -69 callsubr
          32 689 -46 callsubr
        </CharString>
        <CharString name="rcommaaccent">
          -176 206 callsubr
          83 187 218 -106 106 -29 29 6 -20 hstemhm
          91 145 -86 108 hintmask 0101000100000000
          340 hmoveto
          hintmask 1001000100000000
          4 49 rlineto
          hintmask 0010100100000000
          -28 15 -44 12 -36 7 rrcurveto
          202 vlineto
          32 39 38 35 31 23 rrcurveto
          hintmask 0101000100000000
          20 -112 rlineto
          76 hlineto
          hintmask 0100010100000000
          23 55 12 76 2 58 rrcurveto
          hintmask 0101000100000000
          -29 27 -55 12 -50 -18 -100 -112 rcurveline
          hintmask 0100001100000000
          82 vlineto
          -49 44 57 callsubr
          -26 -9 -27 -11 -21 -12 3 -34 rcurveline
          hintmask 0101000010000000
          105 -140 -84 callgsubr
        </CharString>
        <CharString name="registered">
          -75 235 51 90 28.5 72.5 36 102 30 78 50 hstem
          13 54 112 70 87 75 93 54 vstem
          287 773 rmoveto
          -157 -117 -112 -157 -154 110 -115 162 161 112 115 154 157 -114 112 -157 hvcurveto
          -6 -487 rmoveto
          -129 -85 86 128 131 91 92 128 128 90 -91 -129 -129 -92 -88 -131 hvcurveto
          -137 359 rmoveto
          -28 vlineto
          35 -4 rlineto
          -201 vlineto
          -12 -5 -17 -6 -9 -6 4 -19 rcurveline
          143 hlineto
          1 26 -40 5 rlineto
          70 35 vlineto
          57 -101 rlineto
          93 26 hlineto
          -30 4 -51 80 rlineto
          39 15 19 30 30 vvcurveto
          47 -43 37 -77 vhcurveto
          45 -85 rmoveto
          -27 -16 -20 -50 -8 -6 1 1 -7 vhcurveto
          88 vlineto
          54 6 rlineto
          24 -11 9 -19 -19 vvcurveto
          endchar
        </CharString>
        <CharString name="ring">
          -356 710 46 116 75 hstem
          27 60 116 60 vstem
          149 710 -70 callgsubr
          endchar
        </CharString>
        <CharString name="s">
          -62 callgsubr
          endchar
        </CharString>
        <CharString name="sacute">
          -62 callgsubr
          315 535 -57 callsubr
        </CharString>
        <CharString name="scaron">
          -62 callgsubr
          -35 539 -46 callsubr
        </CharString>
</ttFont>
